<svg xmlns="http://www.w3.org/2000/svg" width="76" height="56" fill="none"><g fill="#858585" clip-path="url(#a)"><path d="m.413 31.11 2.155-12.027h2.501L7.192 31.11H5.251l-.34-2.603H2.71l-.387 2.603H.413Zm2.604-4.475H4.62l-.828-5.592-.774 5.592ZM8.208 31.11V19.083h2.62l1.342 6.347c.053.247.101.597.146 1.052.044.456.088 1 .13 1.631.01-.6.036-1.135.075-1.607.04-.47.088-.84.146-1.108l1.357-6.315h2.59V31.11H14.79l.016-7.769c0-.096.012-.357.035-.783.024-.426.06-1.025.107-1.796-.047.279-.106.605-.174.98-.068.375-.166.887-.292 1.535l-1.57 7.833h-1.018l-1.57-7.833c-.127-.648-.224-1.16-.293-1.535a79.707 79.707 0 0 1-.174-.98c.048.771.084 1.37.107 1.796.024.426.036.687.036.783l.015 7.77H8.208ZM17.971 31.11V19.083h1.808l2.296 6.42c.095.267.187.586.277.956.089.37.176.773.26 1.212h.063a24.347 24.347 0 0 1-.193-1.373 10.058 10.058 0 0 1-.067-1.06v-6.155h1.728V31.11h-1.65l-2.454-6.925a11.61 11.61 0 0 1-.323-1.06c-.09-.354-.16-.708-.213-1.061h-.064c.09.434.155.874.198 1.321.042.448.063.912.063 1.394v6.331H17.97ZM25.582 31.11V19.083h5.414v1.872h-3.441v3.013h2.636v1.896h-2.636v3.35h3.654v1.896h-5.627ZM32.02 27.969l1.838-.281c.1.616.258 1.074.473 1.374.216.3.5.45.853.45.352 0 .631-.11.837-.326.205-.217.307-.507.307-.872 0-.643-.702-1.604-2.107-2.884-.215-.198-.378-.35-.489-.458a4.67 4.67 0 0 1-1.081-1.462 3.886 3.886 0 0 1-.38-1.663c0-.862.277-1.57.83-2.121.552-.552 1.257-.828 2.114-.828.806 0 1.456.247 1.95.74.494.492.8 1.197.915 2.112l-1.8.282c-.062-.477-.191-.841-.385-1.093a.9.9 0 0 0-.743-.378c-.31 0-.56.111-.75.334-.189.222-.284.513-.284.872 0 .32.087.63.26.927.174.298.556.722 1.145 1.274l.379.361c1.547 1.436 2.32 2.732 2.32 3.89 0 .899-.283 1.64-.848 2.22-.566.582-1.295.872-2.19.872-.894 0-1.618-.292-2.17-.876-.553-.583-.884-1.406-.995-2.466ZM40.856 31.11V20.907h-1.948v-1.824h5.894v1.824h-1.957V31.11h-1.989ZM48.52 31.11v-4.989l-2.321-7.038h1.965l1.105 3.752c.052.188.1.422.142.703.042.281.073.604.094.968.037-.412.076-.76.115-1.044.04-.284.083-.498.13-.643l1.114-3.736h1.957l-2.33 7.038v4.99H48.52ZM.139 41.713v-7.23h1.185v7.23H.14ZM2.558 41.713v-7.23h1.086l1.38 3.86c.057.16.113.352.167.574.053.222.106.465.156.729h.038a14.86 14.86 0 0 1-.116-.825 6.114 6.114 0 0 1-.04-.639v-3.698h1.038v7.229h-.991L3.801 37.55a6.887 6.887 0 0 1-.323-1.276H3.44c.054.26.093.526.119.794.025.27.037.548.037.838v3.806H2.558ZM8.179 41.713v-6.134H7.007v-1.095h3.544v1.095H9.374v6.134H8.18ZM11.3 41.713v-7.23h3.255v1.126h-2.069v1.811h1.584v1.14h-1.584v2.014h2.196v1.139H11.3ZM19.431 41.713h-1.205l-.854-3.004-.24.02c-.086.006-.17.01-.253.01h-.166v2.974h-1.195v-7.23h1.574c.46 0 .803.03 1.032.09.23.06.433.158.61.297.215.171.383.41.505.718.122.306.183.647.183 1.02 0 .438-.082.818-.244 1.138-.164.32-.406.576-.729.77l.982 3.197Zm-2.718-3.979a.78.78 0 0 0 .107.012c.036.002.09.002.163.002.443 0 .758-.09.944-.272.187-.183.28-.488.28-.916 0-.386-.09-.667-.27-.842-.18-.175-.471-.264-.873-.264a4.999 4.999 0 0 0-.351.02v2.26ZM20.46 41.713v-7.23h1.086l1.38 3.86c.058.16.113.352.167.574.053.222.106.465.157.729h.037a14.87 14.87 0 0 1-.116-.825 6.151 6.151 0 0 1-.04-.639v-3.698h1.039v7.229h-.992l-1.475-4.162a6.898 6.898 0 0 1-.322-1.276h-.038c.053.26.093.526.118.794.026.27.038.548.038.838v3.806H20.46ZM24.858 41.713l1.295-7.23h1.504l1.276 7.23h-1.167l-.204-1.564h-1.324l-.232 1.564h-1.148Zm1.565-2.69h.963l-.498-3.361-.465 3.361ZM30.038 41.713v-6.134h-1.172v-1.095h3.544v1.095h-1.177v6.134h-1.195ZM33.188 41.713v-7.23h1.186v7.23h-1.186ZM35.346 38.1c0-1.232.176-2.166.528-2.802.353-.637.873-.954 1.559-.954.686 0 1.205.317 1.558.954.353.636.529 1.57.529 2.803 0 1.24-.176 2.178-.529 2.815-.353.638-.872.956-1.558.956s-1.206-.318-1.559-.956c-.352-.637-.529-1.575-.529-2.815Zm1.186 0c0 .925.072 1.605.218 2.04.145.437.373.655.683.655.31 0 .538-.218.683-.654.146-.436.218-1.116.218-2.04 0-.92-.072-1.6-.218-2.036-.145-.436-.373-.654-.683-.654-.31 0-.538.218-.683.654-.146.436-.218 1.115-.218 2.036ZM40.464 41.713v-7.23h1.087l1.38 3.86c.057.16.113.352.166.574.054.222.106.465.157.729h.038a14.41 14.41 0 0 1-.117-.825 6.018 6.018 0 0 1-.04-.639v-3.698h1.039v7.229h-.991l-1.476-4.162a7.018 7.018 0 0 1-.323-1.276h-.037c.054.26.093.526.118.794.026.27.038.548.038.838v3.806h-1.039ZM44.861 41.713l1.295-7.23h1.505l1.276 7.23H47.77l-.204-1.564h-1.324l-.232 1.564H44.86Zm1.566-2.69h.963l-.498-3.361-.465 3.361ZM49.596 41.713v-7.23h1.186v6.09h2.196v1.14h-3.382Z"/><path fill-rule="evenodd" d="M69.65 39.958c.012.012-.035.023-.02.03.185.096.466.02.558-.167l.336-.664.475.454c.15.14.39.13.53-.02a.392.392 0 0 0-.02-.544l-.221-.208a37.747 37.747 0 0 0 2.608-.783l-.113.318c-.07.197.03.417.227.487a.375.375 0 0 0 .478-.23l.248-.7.529.384c.168.12.4.082.522-.092a.383.383 0 0 0-.087-.529l-.7-.51.306-.871a.385.385 0 0 0-.227-.49.378.378 0 0 0-.479.23l-.235.67-.479-.348a.368.368 0 0 0-.52.088.379.379 0 0 0 .087.53l.374.276c-.5.18-1.406.482-2.78.847l.246-.488a.384.384 0 0 0-.162-.512.37.37 0 0 0-.505.165l-.32.632-.429-.407a.344.344 0 0 0-.182-.089c.037-1.737.076-3.615.121-5.386.214-.04.423-.075.627-.115l-.204.439a.384.384 0 0 0 .178.506c.188.09.41.009.5-.182l.313-.67.488.432c.157.14.392.124.53-.033a.389.389 0 0 0-.035-.54l-.302-.269c.637-.157 1.172-.328 1.567-.51.879-.411 1.346-.937 1.392-1.564.004-.05.004-.1.001-.151l.605.21a.374.374 0 0 0 .475-.235.383.383 0 0 0-.232-.486l-.661-.23.334-.492a.386.386 0 0 0-.095-.53.37.37 0 0 0-.52.096l-.376.552c-.341-.431-.814-.806-1.25-1.094l-.039-.027a15.634 15.634 0 0 0-1.209-.74l.46-.344a.386.386 0 0 0 .079-.534.37.37 0 0 0-.525-.08l-.56.42-.207-.56a.372.372 0 0 0-.483-.222.38.38 0 0 0-.218.49l.077.212c-.1-.036-.207-.07-.31-.106.224-.924.498-2.055.35-2.593-.128-.447-.99-.524-.99-.524h-3.182c-.371-.569-.196-.681.095-1.391.314-.766.752-1.085 1.819-2.297.167-.193 1.614-2.01 1.614-2.01.348-.556.58-1.117.58-1.692 0-2.616-2.446-4.083-2.446-4.083s-.061.636-.313 1.339c-.252.701-1.691 1.34-2.884 1.85-1.05.45-2.957.649-3.497 4.016.471 3.707 3.278 3.42 3.497 3.643.169.173.083.455.008.625h-3.28v2.77c-1.492.322-2.86.787-3.932 1.216l.102-.353a.381.381 0 0 0-.252-.475.372.372 0 0 0-.466.257l-.199.68-.494-.319a.372.372 0 0 0-.518.117c-.11.18-.06.414.116.528l.28.18c-.516.24-.832.41-.882.436a.386.386 0 0 0-.156.516.37.37 0 0 0 .506.157c.014-.004.302-.159.789-.384l-.132.45c-.058.201.053.415.252.475a.371.371 0 0 0 .465-.258l.21-.713.548.353a.37.37 0 0 0 .518-.12.386.386 0 0 0-.116-.525l-.387-.25c1.021-.407 2.33-.86 3.749-1.181v6.201l-1.4.152.161-.299a.386.386 0 0 0-.144-.518.374.374 0 0 0-.512.148l-.336.62-.417-.417a.367.367 0 0 0-.528.003.382.382 0 0 0 0 .539l.21.21c-1.594.43-2.607 1.195-2.74 2.138-.06.424.05.968.613 1.563l-.63.166a.38.38 0 0 0-.266.468.375.375 0 0 0 .456.273l.708-.188-.01.658a.38.38 0 0 0 .366.39.383.383 0 0 0 .383-.377l.01-.588c.39.242.858.486 1.435.731.326.137.748.27 1.233.402l-.464.398a.39.39 0 0 0-.045.539c.134.16.37.18.53.045l.558-.481.269.6a.374.374 0 0 0 .495.192c.025-.015.042-.031.065-.048v2.813l8.041 1.886s.016-4.184.02-4.375Zm.393-13.534c.131.044.257.089.38.136l-.453.34c.002-.117.033-.282.073-.476Zm-.096 1.062c.13.117.322.137.467.029l.591-.443.225.619a.372.372 0 0 0 .483.222.383.383 0 0 0 .221-.491l-.063-.169c.309.18.579.358.83.526l.042.026c.142.094.27.187.392.283a.383.383 0 0 0 .052.7l.691.24-.369.542a.385.385 0 0 0 .095.532c.014.01.03.012.043.02a3.389 3.389 0 0 1-.48.27c-.349.165-.828.316-1.397.46l.186-.396a.386.386 0 0 0-.179-.509.375.375 0 0 0-.5.181l-.297.643-.442-.394a.37.37 0 0 0-.53.033c-.136.16-.12.4.036.54l.247.222c-.148.028-.301.056-.457.081.036-1.381.075-2.677.113-3.767Zm-8.36 9.698c-.009.005-.017.009-.02.012l-.535.458-.24-.541a.372.372 0 0 0-.498-.19c-.187.084-.273.312-.187.503l.082.18a8.458 8.458 0 0 1-.954-.325 10.825 10.825 0 0 1-1.025-.496l.188-.05a.381.381 0 0 0 .265-.466.374.374 0 0 0-.456-.273l-.674.18.011-.598a.383.383 0 0 0-.369-.387.381.381 0 0 0-.38.373l-.004.062c-.133-.215-.193-.426-.166-.628.085-.6.91-1.151 2.142-1.493l-.243.449a.386.386 0 0 0 .147.52c.181.1.409.032.51-.153l.352-.648.462.463c.149.15.384.147.53-.003a.386.386 0 0 0-.002-.539l-.355-.36a.73.73 0 0 0 .093-.01l1.327-.143v4.103Zm2.457-18.633c0-.09.257-.814.27-.9l.541-.793c.42-.46.937-.885 1.384-1.307.939-.895 2.318-2.49 2.318-2.49s.817 1.149-.627 3.446c-.077.125-.431.754-.502.863l-.716.919c-.358.468-.479.593-.66 1.154-.316.957-.691 2.106-.691 2.106s-1.317-1.02-1.317-2.998Zm4.124 23.74c-.25-.089-5.095-1.282-5.177-1.314v-8.05l1.13-.124-.237.337a.387.387 0 0 0 .09.53.37.37 0 0 0 .523-.089l.424-.606.406.513a.372.372 0 0 0 .528.056.385.385 0 0 0 .057-.536l-.302-.38a94.254 94.254 0 0 0 2.558-.336v9.998Zm0-10.77c-.794.117-1.628.227-2.465.328l.196-.277a.387.387 0 0 0-.09-.532.371.371 0 0 0-.523.09l-.403.581-.37-.466a.368.368 0 0 0-.525-.059.387.387 0 0 0-.056.54l.24.302c-.397.048-.794.09-1.18.133v-8.173h5.176v7.533Z" clip-rule="evenodd"/></g><defs><clipPath id="a"><path fill="#fff" d="M.139 0h75.833v56H.139z"/></clipPath></defs></svg>