<svg width="117" height="36" viewBox="0 0 117 36" fill="none" xmlns="http://www.w3.org/2000/svg">
<path d="M29.8291 14.9557L22.0811 7.20773C21.8122 6.96331 21.4212 6.96331 21.1523 7.20773L19.6125 8.74754L25.8451 14.9557C26.0895 15.2001 26.0895 15.6401 25.8451 15.8845L19.4414 22.2882L20.9812 23.828C21.2501 24.0724 21.6411 24.0724 21.91 23.828L29.8291 15.9089C30.0735 15.6401 30.0735 15.2246 29.8291 14.9557Z" fill="#069C9C"/>
<path d="M16.6304 7.79527L16.0682 7.23312C15.7994 6.9887 15.4083 6.9887 15.1394 7.23312L13.5996 8.77294L14.6262 9.79948L16.6304 11.7793L18.6101 9.79948L16.6304 7.79527Z" fill="#69C4CF"/>
<path d="M16.4594 19.3057L14.4797 21.2854L13.4531 22.312L14.9929 23.8518C15.2618 24.0962 15.6529 24.0962 15.9217 23.8518L16.4839 23.2896L18.4881 21.2854L16.4594 19.3057Z" fill="#69C4CF"/>
<path d="M19.8564 14.9561C20.1008 15.2249 20.1008 15.6404 19.8564 15.8848L16.4346 19.2822L18.4388 21.2864L23.8404 15.8848C24.0848 15.6404 24.0848 15.2005 23.8404 14.9561L18.6343 9.75L16.6301 11.7298L19.8564 14.9561Z" fill="#2AB5B5"/>
<path d="M7.19594 15.1513L12.5975 9.74968L10.6178 7.74547L10.0312 7.18331C9.76231 6.9389 9.37124 6.9389 9.10239 7.18331L1.18331 15.1268C0.938896 15.3712 0.938896 15.7868 1.18331 16.0556L8.9313 23.8036C9.20015 24.048 9.61566 24.048 9.86008 23.8036L10.4222 23.2414L12.4264 21.2372L7.22038 16.0312C6.95153 15.8356 6.95153 15.4201 7.19594 15.1513Z" fill="#97D3DD"/>
<path d="M13.2086 15.1506L15.5795 12.7798L13.5753 10.8L12.5487 9.77344L7.19601 15.175C6.95159 15.4194 6.95159 15.835 7.19601 16.1038L12.3776 21.2854L13.4042 20.2589L15.3839 18.2547L13.1842 16.0549C12.9642 15.835 12.9642 15.4194 13.2086 15.1506Z" fill="#69C4CF"/>
<path d="M13.2089 16.0809L15.4087 18.2806L17.7795 15.9098C18.0239 15.6654 18.0239 15.2499 17.7795 14.981L15.5798 12.7812L13.2089 15.1521C12.989 15.4209 12.989 15.8364 13.2089 16.0809Z" fill="#48BBC2"/>
<path d="M36.0616 13.3427C36.086 12.4628 36.2571 11.6074 36.5749 10.7763C36.8926 10.0186 37.3325 9.33428 37.9191 8.77213C38.5546 8.20997 39.2879 7.74558 40.0944 7.50116C41.0721 7.18342 42.0987 7.01233 43.1252 7.03677C44.274 7.01233 45.4227 7.15898 46.4981 7.55005C47.2558 7.84335 47.9891 8.25885 48.6001 8.82101C49.0889 9.23652 49.4556 9.77423 49.7 10.3364C49.8955 10.7519 49.9933 11.1918 50.0666 11.6562C50.0911 11.8273 50.0422 11.9984 49.8955 12.1206C49.7733 12.2428 49.6022 12.2917 49.4311 12.2917H47.5247C47.378 12.2917 47.2314 12.2673 47.1336 12.1695C47.0359 12.0962 46.9625 11.9984 46.9136 11.9007C46.8892 11.8518 46.7914 11.7051 46.6692 11.5096C46.4981 11.2652 46.2782 11.0208 46.0337 10.8497C45.6916 10.6052 45.3005 10.3853 44.9094 10.2386C44.3473 10.0431 43.7362 9.94532 43.1496 9.96976C42.1231 9.92088 41.121 10.2631 40.3389 10.923C39.6301 11.5829 39.2145 12.4872 39.2145 13.4649C39.1657 14.0515 39.1657 14.687 39.1657 15.3958C39.1657 16.0557 39.1657 16.7156 39.2145 17.3022C39.239 18.5976 39.6301 19.5509 40.3389 20.113C41.1454 20.7241 42.1475 21.0418 43.1252 20.9929C43.6629 20.9929 44.2006 20.944 44.7139 20.7974C45.1783 20.6752 45.5938 20.4796 45.9604 20.1863C46.327 19.893 46.6203 19.5264 46.7914 19.062C47.0114 18.5243 47.1092 17.9622 47.0847 17.3756V17.18H44.2251C44.054 17.18 43.9073 17.1312 43.7851 16.9845C43.6629 16.8623 43.5896 16.7156 43.5896 16.5446V14.8825C43.5896 14.5403 43.8829 14.247 44.2251 14.247H49.6022C49.9444 14.247 50.2377 14.5403 50.2377 14.8825V17.4489C50.2621 18.3288 50.1155 19.2087 49.7978 20.0397C49.5045 20.7974 49.0401 21.5062 48.4535 22.0683C47.818 22.6549 47.0603 23.1193 46.2293 23.4126C44.2251 24.0481 42.0498 24.0481 40.0211 23.4126C39.2145 23.1438 38.4813 22.7038 37.8458 22.1172C37.2837 21.5551 36.8193 20.8707 36.526 20.0886C36.2327 19.2576 36.0371 18.3777 36.0371 17.4978C36.0371 17.2045 36.0127 16.8623 36.0127 16.5201C36.0127 16.1535 36.0127 15.7869 36.0127 15.3958C36.0127 15.0047 36.0127 14.6381 36.0127 14.2959C36.0127 13.9537 36.0371 13.636 36.0616 13.3427Z" fill="#424A52"/>
<path fill-rule="evenodd" clip-rule="evenodd" d="M51.7285 17.5709C51.7285 16.7155 51.8507 15.9089 52.1196 15.1023C52.364 14.3447 52.7551 13.6603 53.2683 13.0737C53.7572 12.4871 54.3926 12.0472 55.077 11.7294C55.8347 11.4117 56.6413 11.2406 57.4234 11.2406C58.23 11.2161 59.0365 11.3872 59.7698 11.7294C60.4542 12.0227 61.0896 12.4871 61.6029 13.0248C62.0917 13.587 62.5073 14.198 62.7761 14.9313C63.045 15.6645 63.1916 16.4222 63.1672 17.2043V18.2553C63.1672 18.5975 62.8739 18.8908 62.5317 18.8908H54.7104C54.7104 19.2085 54.7837 19.5507 54.9304 19.8196C55.077 20.0884 55.2725 20.3084 55.517 20.5039C55.7858 20.6995 56.0791 20.8217 56.3724 20.9194C56.6902 21.0172 57.0323 21.0417 57.399 21.0417C57.79 21.0661 58.23 21.0172 58.621 20.895C58.8899 20.8217 59.1588 20.675 59.3787 20.5039C59.5009 20.4062 59.6476 20.3084 59.7942 20.2351C59.9164 20.1862 60.0875 20.1618 60.2342 20.1618H62.1162C62.2873 20.1618 62.4584 20.2351 62.5806 20.3573C62.7028 20.4795 62.7761 20.6261 62.7517 20.7972C62.7028 21.115 62.5806 21.3838 62.385 21.6527C62.1162 22.0438 61.774 22.4104 61.3585 22.6792C60.8452 23.0459 60.2586 23.3392 59.672 23.5103C58.9143 23.7547 58.1322 23.8769 57.3745 23.8524C56.5679 23.8524 55.7614 23.7058 55.0281 23.388C54.3438 23.0947 53.7083 22.6548 53.2194 22.1171C52.7062 21.5305 52.3151 20.8461 52.0707 20.1129C51.8507 19.2819 51.7285 18.4264 51.7285 17.5709ZM57.4723 14.0514C57.0812 14.0269 56.6902 14.1002 56.2991 14.2469C55.9813 14.3691 55.7125 14.5402 55.4925 14.7602C55.297 14.9557 55.1015 15.2001 55.0037 15.469C54.8815 15.6889 54.8082 15.9334 54.7837 16.2022H60.0631C60.0387 15.9578 59.9653 15.7134 59.892 15.469C59.7942 15.2001 59.672 14.9801 59.4765 14.7602C59.2565 14.5402 58.9877 14.3691 58.7188 14.2469C58.3033 14.1002 57.8878 14.0514 57.4723 14.0514Z" fill="#424A52"/>
<path d="M68.8379 19.2569C68.8135 19.6724 68.9601 20.1124 69.229 20.4057C69.4734 20.699 69.9622 20.8456 70.671 20.8456H72.0886C72.4308 20.8456 72.7241 21.1389 72.7241 21.4811V23.0209C72.7241 23.3631 72.4308 23.6564 72.0886 23.6564H70.3533C68.8868 23.6564 67.7625 23.2898 66.9803 22.581C66.1982 21.8722 65.8071 20.7723 65.8071 19.3303V14.2953H64.2673C64.0962 14.2953 63.9496 14.2464 63.8274 14.0998C63.7296 13.9775 63.6318 13.8309 63.6318 13.6598V12.12C63.6318 11.9489 63.6807 11.8022 63.8274 11.68C63.9496 11.5578 64.0962 11.4845 64.2673 11.4845H65.8071V7.67162C65.8071 7.32943 66.1004 7.03613 66.4426 7.03613H68.2269C68.569 7.03613 68.8623 7.32943 68.8623 7.67162V11.4845H71.8442C72.1864 11.5089 72.4308 11.7778 72.4553 12.12V13.6598C72.4553 14.002 72.162 14.2953 71.8198 14.2953H68.789L68.8379 19.2569Z" fill="#424A52"/>
<path fill-rule="evenodd" clip-rule="evenodd" d="M82.9167 7.25658C83.1366 7.23214 83.3322 7.30547 83.4788 7.45212C83.6255 7.62321 83.7477 7.84318 83.821 8.03871L89.5403 22.8503C89.5648 22.8992 89.5648 22.9725 89.5648 22.997C89.5648 23.3391 89.2715 23.6324 88.9293 23.6324H87.2428C87.0228 23.6569 86.7784 23.5836 86.5829 23.4369C86.4607 23.3147 86.3874 23.1925 86.3385 23.0458L85.3119 20.455H77.9306L76.904 23.0458C76.8551 23.1925 76.7574 23.3147 76.6596 23.4369C76.4641 23.5836 76.2441 23.6569 75.9997 23.6324H74.3132C73.971 23.6324 73.6777 23.3391 73.6777 22.997C73.6777 22.9481 73.6777 22.8748 73.7022 22.8503L79.4215 8.03871C79.4948 7.84318 79.617 7.62321 79.7637 7.45212C79.9103 7.32991 80.1303 7.23214 80.3258 7.25658H82.9167ZM84.2121 17.5465L81.6213 10.8984L79.0549 17.5709H84.2121V17.5465Z" fill="#424A52"/>
<path fill-rule="evenodd" clip-rule="evenodd" d="M97.4351 23.8769C96.9952 23.8769 96.5552 23.8524 96.1397 23.7547C95.7976 23.6813 95.4554 23.5591 95.1132 23.4125C94.8688 23.2903 94.6244 23.1192 94.3799 22.9236C94.2089 22.8014 94.0378 22.6303 93.8911 22.4592V27.4453C93.8911 27.7875 93.5978 28.0808 93.2556 28.0808H91.4958C91.1537 28.0808 90.8604 27.7875 90.8604 27.4453V12.1205C90.8604 11.7783 91.1537 11.485 91.4958 11.485H93.2801C93.6223 11.485 93.9156 11.7783 93.9156 12.1205V12.6582C94.0622 12.4871 94.2088 12.3404 94.4044 12.1938C94.6244 12.0227 94.8688 11.876 95.1376 11.7294C95.4554 11.5827 95.822 11.4605 96.1642 11.3872C96.5797 11.2894 97.0196 11.265 97.4596 11.265C98.1928 11.2406 98.9016 11.4117 99.586 11.7294C100.197 12.0227 100.759 12.4382 101.199 12.9515C101.664 13.4647 102.006 14.0513 102.25 14.7113C102.495 15.3956 102.641 16.08 102.69 16.7888C102.715 17.0088 102.715 17.2776 102.715 17.6198C102.715 17.9376 102.715 18.2064 102.69 18.4508C102.641 19.1596 102.519 19.8684 102.25 20.5284C102.006 21.1883 101.664 21.7749 101.199 22.2882C100.759 22.8014 100.197 23.2169 99.586 23.5102C98.8772 23.7547 98.144 23.9013 97.4351 23.8769ZM99.586 18.2309C99.6349 17.7909 99.6349 17.351 99.586 16.9354C99.4882 15.9089 99.1949 15.2001 98.6572 14.7601C98.1195 14.2958 97.4351 14.0758 96.7263 14.0758C96.0175 14.0513 95.3332 14.2958 94.7954 14.7601C94.2333 15.249 93.94 15.9578 93.8911 16.691C93.8667 16.9843 93.8422 17.2776 93.8667 17.5709C93.8667 17.8642 93.8911 18.1575 93.8911 18.4508C93.94 19.1841 94.2577 19.8684 94.7954 20.3573C95.3332 20.8217 96.0175 21.0905 96.7263 21.0661C97.4351 21.0905 98.1195 20.8461 98.6572 20.4062C99.1949 19.9418 99.4882 19.2085 99.586 18.2309Z" fill="#424A52"/>
<path fill-rule="evenodd" clip-rule="evenodd" d="M110.632 23.8768C110.192 23.8768 109.753 23.8524 109.337 23.7546C108.995 23.6813 108.653 23.5591 108.31 23.4124C108.042 23.2902 107.797 23.1191 107.577 22.9481C107.406 22.8258 107.235 22.6548 107.088 22.4837V27.4697C107.088 27.6408 107.015 27.7875 106.893 27.9097C106.771 28.0319 106.624 28.1052 106.453 28.1052H104.669C104.326 28.1052 104.033 27.8119 104.033 27.4697V12.1449C104.033 11.8027 104.326 11.5094 104.669 11.5094H106.453C106.795 11.5094 107.088 11.8027 107.088 12.1449V12.6826C107.235 12.5115 107.406 12.3648 107.577 12.2182C107.797 12.0471 108.066 11.9005 108.31 11.7538C108.628 11.6072 108.97 11.4849 109.337 11.4116C109.753 11.3139 110.192 11.2894 110.632 11.2894C111.366 11.265 112.074 11.4361 112.759 11.7538C113.37 12.0471 113.932 12.4626 114.372 12.9759C114.836 13.4892 115.179 14.0758 115.423 14.7357C115.667 15.42 115.838 16.1044 115.863 16.8132C115.887 17.0332 115.887 17.302 115.887 17.6442C115.887 17.962 115.887 18.2308 115.863 18.4752C115.838 19.184 115.692 19.8929 115.423 20.5528C115.179 21.2127 114.836 21.7993 114.372 22.3126C113.908 22.8258 113.37 23.2413 112.759 23.5346C112.074 23.8524 111.366 23.999 110.632 23.999M112.808 18.2308C112.832 17.7909 112.832 17.3509 112.808 16.9354C112.71 15.9089 112.417 15.2001 111.879 14.7601C111.341 14.2957 110.657 14.0758 109.948 14.0758C109.239 14.0513 108.555 14.2957 108.017 14.7601C107.455 15.2489 107.162 15.9578 107.113 16.691C107.088 16.9843 107.064 17.2776 107.088 17.5709C107.088 17.8642 107.113 18.1575 107.113 18.4508C107.162 19.184 107.479 19.8684 108.017 20.3572C108.555 20.8216 109.239 21.0905 109.948 21.066C110.657 21.0905 111.341 20.8461 111.879 20.4061C112.417 19.9417 112.71 19.2085 112.808 18.2308Z" fill="#424A52"/>
</svg>
