<svg width="450" height="277" viewBox="0 0 450 277" fill="none" xmlns="http://www.w3.org/2000/svg">
<path d="M397.16 230.057C394.358 253.446 376.272 272.255 353.255 276.177H441.065C418.048 272.255 399.962 253.446 397.16 230.057Z" fill="#006A43"/>
<path d="M449.061 144.331V119.446L436.615 131.891L449.061 144.331Z" fill="#D7FEC8"/>
<path d="M448.528 118.913H423.643L436.083 131.359L448.528 118.913Z" fill="#D7FEC8"/>
<path d="M423.643 144.864H448.528L436.083 132.423L423.643 144.864Z" fill="#D7FEC8"/>
<path d="M423.11 119.446V144.331L435.551 131.891L423.11 119.446Z" fill="#D7FEC8"/>
<path d="M397.16 17.9399C387.417 27.8188 382.058 40.8819 382.058 54.7686C382.058 68.6553 387.417 81.7184 397.155 91.5973C406.898 81.7184 412.257 68.6553 412.257 54.7686C412.257 40.8819 406.898 27.8188 397.16 17.9399Z" fill="#D7FEC8"/>
<path d="M368.804 177.594C361.431 173.697 353.104 171.608 344.702 171.547C344.762 180.216 346.977 188.779 351.116 196.333C353.511 200.707 356.52 204.725 360.065 208.266C369.889 218.089 382.912 223.533 396.783 223.634C396.648 204.283 385.93 186.649 368.804 177.599V177.594Z" fill="#0B996E"/>
<path d="M290.777 27.2612C285.032 29.5866 279.879 33.0068 275.469 37.4164C270.939 41.9465 267.338 47.466 265.043 53.4125H370.622C362.953 43.4833 352.024 36.7032 339.765 34.2774L339.559 34.2372L339.484 34.0414C335.787 24.3533 329.329 16.0765 320.806 10.1C312.087 3.98779 301.831 0.753418 291.149 0.753418C279.879 0.753418 269.166 4.31424 260.166 11.0542L260.01 11.1697L259.825 11.1145C254.817 9.55252 249.609 8.759 244.346 8.759C229.339 8.759 215.166 15.2277 205.317 26.538H292.565L290.772 27.2663L290.777 27.2612Z" fill="#FAF5E3"/>
<path d="M343.944 170.794H344.32C352.763 170.794 361.145 172.823 368.598 176.65V92.5061H264.968V171.417H301.761C305.116 171.417 307.848 174.149 307.848 177.504V196.132H350.161C346.098 188.493 343.949 179.879 343.949 171.166V170.789L343.944 170.794ZM343.401 144.698C328.932 144.698 317.16 156.47 317.16 170.94H316.406C316.406 156.47 304.634 144.698 290.165 144.698V143.945C304.634 143.945 316.406 132.172 316.406 117.703H317.16C317.16 132.172 328.932 143.945 343.401 143.945V144.321V144.698Z" fill="#F9FFF6"/>
<path d="M316.783 122.213C314.879 133.493 305.955 142.418 294.675 144.321C305.955 146.225 314.879 155.15 316.783 166.43C318.686 155.15 327.611 146.225 338.891 144.321C327.611 142.418 318.686 133.493 316.783 122.213Z" fill="#D7FEC8"/>
<path d="M264.591 196.514H264.214V172.176H190.246C187.302 172.176 184.912 174.571 184.912 177.509V259.423C184.912 262.361 187.307 264.757 190.246 264.757H301.761C301.887 264.757 302.012 264.757 302.143 264.742C304.92 264.546 307.095 262.211 307.095 259.423V196.885H264.596V196.509L264.591 196.514Z" fill="#FAF5E3"/>
<path d="M301.761 172.176H264.968V196.137H307.095V177.509C307.095 174.566 304.704 172.176 301.761 172.176Z" fill="#006A43"/>
<path d="M190.246 265.51C187.302 265.51 184.912 267.9 184.912 270.843C184.912 273.786 187.307 276.177 190.246 276.177H302.173C305.111 276.177 307.507 273.786 307.507 270.843C307.507 267.9 305.116 265.51 302.173 265.51V265.495C302.037 265.505 301.902 265.51 301.761 265.51H190.246Z" fill="white"/>
<path d="M158.931 270.844C158.931 267.489 161.663 264.757 165.018 264.757H187.317C185.434 263.722 184.158 261.718 184.158 259.423V177.509C184.158 174.149 186.89 171.422 190.245 171.422H263.908L240.765 142.297C235.044 135.1 227.39 129.792 218.631 126.959C213.986 125.453 209.154 124.689 204.268 124.689H202.917C200.43 124.689 197.965 124.353 195.589 123.7C195.348 124.373 195.092 125.046 194.816 125.709C192.967 130.073 190.331 133.99 186.971 137.345C183.611 140.705 179.693 143.347 175.334 145.195C170.819 147.104 166.028 148.068 161.081 148.068C156.134 148.068 151.347 147.099 146.832 145.195C142.463 143.342 138.546 140.705 135.191 137.345C131.836 133.99 129.194 130.078 127.341 125.709C127.059 125.036 126.803 124.363 126.567 123.7C124.192 124.353 121.726 124.689 119.235 124.689H117.884C113.007 124.689 108.176 125.453 103.525 126.954C94.7709 129.792 87.1169 135.095 81.3965 142.297L18.2157 221.786C10.2603 231.795 8.70844 245.702 14.2631 257.218C19.8228 268.734 31.6756 276.172 44.4574 276.172H98.1962V276.097H97.8195V239.796L45.5874 230.103L45.7229 229.364L75.4199 234.874L103.399 204.388C101.014 194.042 98.9645 182.747 102.003 168.564L102.741 168.72C99.7179 182.843 101.792 194.093 104.178 204.408C104.429 205.483 104.68 206.548 104.931 207.608C107.914 220.173 110.732 232.041 103.756 246.295L124.729 251.081C136.542 253.778 144.813 264.074 144.929 276.172H162.085C160.207 275.138 158.926 273.134 158.926 270.839L158.931 270.844Z" fill="#D7FEC8"/>
<path d="M264.184 130.199C264.184 127.105 264.028 123.971 263.717 120.887C263.405 117.844 262.943 114.805 262.336 111.847C261.738 108.914 260.98 105.976 260.091 103.123C259.222 100.321 258.197 97.5082 257.037 94.761C255.897 92.059 254.606 89.3821 253.21 86.8006C251.819 84.2443 250.287 81.7181 248.655 79.2973C247.023 76.8866 245.26 74.5261 243.417 72.2962C241.558 70.0462 239.58 67.8715 237.546 65.8324C235.682 63.9692 233.724 62.1712 231.705 60.4736V63.5473C231.705 66.6812 231.86 69.8151 232.172 72.8587C232.478 75.8821 232.94 78.9206 233.548 81.8988C234.146 84.8319 234.904 87.7649 235.793 90.6226C236.662 93.4201 237.686 96.2326 238.846 98.9848C239.991 101.692 241.282 104.369 242.673 106.94C244.075 109.517 245.606 112.043 247.229 114.443C248.861 116.864 250.624 119.22 252.467 121.45C254.315 123.695 256.294 125.869 258.338 127.913C260.221 129.797 262.2 131.595 264.214 133.287V130.194H264.184V130.199Z" fill="#0B996E"/>
<path d="M137.084 99.6328L132.745 89.3722C132.529 88.8599 132.308 88.3476 132.087 87.8404C130.726 87.5792 129.551 86.6501 128.993 85.3744L123.283 72.3616C122.956 71.6133 122.786 70.8198 122.786 69.9911C122.786 66.7366 125.432 64.0898 128.687 64.0898C137.777 64.0798 146.295 60.0519 152.056 53.0307L152.724 52.2171V64.0848H193.364C196.614 64.0848 199.261 66.7316 199.261 69.986C199.261 70.8097 199.095 71.6083 198.763 72.3566L193.053 85.3694C192.501 86.625 191.391 87.529 190.06 87.8153L185.063 99.6278C183.752 102.727 181.873 105.514 179.483 107.905C179.247 108.141 178.985 108.387 178.709 108.643L178.78 108.794C182.084 115.639 188.161 120.777 195.454 122.881C197.869 123.579 200.381 123.936 202.912 123.936H204.263C209.205 123.936 214.086 124.704 218.782 126.221H227.953C226.723 124.694 225.552 123.112 224.463 121.505C223.207 119.637 222.037 117.713 220.992 115.79C219.927 113.831 218.943 111.792 218.074 109.728C217.2 107.664 216.417 105.519 215.749 103.354C215.071 101.175 214.498 98.9397 214.041 96.7098C213.579 94.4447 213.228 92.1295 212.992 89.8192C212.756 87.4738 212.635 85.0882 212.635 82.7277V64.1802C212.635 35.7489 189.507 12.6211 161.076 12.6211C132.645 12.6211 109.517 35.7489 109.517 64.1802V82.7277C109.517 85.0882 109.396 87.4738 109.16 89.8192C108.924 92.1295 108.573 94.4448 108.111 96.7048C107.648 98.9598 107.076 101.195 106.408 103.349C105.745 105.489 104.962 107.633 104.078 109.723C103.209 111.777 102.229 113.816 101.16 115.785C100.09 117.748 98.9197 119.672 97.6892 121.5C96.5943 123.122 95.424 124.704 94.2036 126.216H103.359C108.065 124.699 112.957 123.931 117.889 123.931H119.24C121.776 123.931 124.287 123.574 126.703 122.876C133.99 120.772 140.068 115.634 143.372 108.789L143.448 108.638C143.171 108.382 142.91 108.136 142.674 107.9C140.283 105.509 138.405 102.722 137.094 99.6228L137.084 99.6328Z" fill="#006A43"/>
<path d="M161.081 114.78C164.496 114.78 167.806 114.112 170.919 112.791C173.516 111.696 175.897 110.18 178.001 108.281C178.327 107.99 178.649 107.684 178.955 107.377C181.275 105.057 183.099 102.35 184.374 99.3415L189.527 87.1523L189.733 87.1171C190.903 86.9263 191.888 86.1629 192.365 85.073L198.075 72.0602C198.361 71.4073 198.507 70.7142 198.507 69.996C198.507 67.1584 196.202 64.8481 193.364 64.8481H151.97V54.3013C146.084 61.0111 137.657 64.8381 128.687 64.8481C125.849 64.8481 123.539 67.1584 123.539 69.996C123.539 70.7142 123.685 71.4123 123.971 72.0602L129.686 85.073C130.168 86.1779 131.213 86.9664 132.408 87.1322L132.619 87.1623L132.705 87.3532C132.956 87.9257 133.207 88.5033 133.448 89.0808L137.787 99.3415C139.063 102.355 140.886 105.057 143.206 107.377C143.518 107.689 143.839 107.99 144.16 108.281C146.265 110.18 148.651 111.696 151.242 112.791C154.356 114.112 157.671 114.78 161.086 114.78H161.081ZM161.081 103.148C159.002 103.148 156.993 102.742 155.109 101.943L155.401 101.25C157.193 102.008 159.102 102.395 161.081 102.395C163.06 102.395 164.963 102.008 166.756 101.25L167.047 101.943C165.159 102.742 163.155 103.148 161.076 103.148H161.081ZM174.651 80.0909H173.898V72.5273H174.651V80.0909ZM166.279 69.2678H182.27V70.0211H166.279V69.2678ZM146.988 80.0909H146.235V72.5273H146.988V80.0909ZM137.094 70.0211V69.2678H147.917C151.533 69.2678 154.994 70.8046 157.414 73.4865C159.835 76.1685 161.01 79.7695 160.639 83.3654L159.403 95.4341H162.723V96.1874H158.57L159.89 83.2851C160.242 79.9051 159.132 76.515 156.857 73.9888C154.577 71.4625 151.322 70.0161 147.922 70.0161H137.099L137.094 70.0211Z" fill="#FAF5E3"/>
<path d="M135.723 136.808C139.008 140.098 142.845 142.684 147.124 144.497C151.544 146.365 156.24 147.31 161.081 147.31C165.923 147.31 170.618 146.36 175.038 144.497C179.312 142.689 183.144 140.103 186.439 136.808C189.728 133.523 192.315 129.686 194.123 125.412C194.389 124.779 194.64 124.132 194.866 123.484C187.559 121.254 181.477 116.061 178.132 109.165C176.058 110.968 173.732 112.42 171.216 113.484C168.007 114.84 164.597 115.528 161.086 115.528C157.575 115.528 154.16 114.84 150.951 113.479C148.43 112.415 146.109 110.958 144.03 109.155C140.685 116.051 134.603 121.249 127.296 123.479C127.522 124.117 127.768 124.759 128.039 125.407C129.852 129.686 132.439 133.518 135.728 136.803L135.723 136.808Z" fill="#FAF5E3"/>
<path d="M184.158 270.844C184.158 268.549 185.439 266.55 187.318 265.51H165.018C162.08 265.51 159.685 267.901 159.685 270.844C159.685 273.787 162.075 276.178 165.018 276.178H187.318C185.434 275.143 184.158 273.139 184.158 270.844Z" fill="#006A43"/>
<path d="M124.564 251.819L98.5732 245.888V276.102H98.1965V276.178H144.181C144.065 264.435 136.035 254.441 124.569 251.819H124.564Z" fill="#FAF5E3"/>
<path d="M143.904 108.558C143.573 108.261 143.252 107.955 142.935 107.638C140.615 105.318 138.732 102.551 137.436 99.4822L133.097 89.2216C132.855 88.644 132.604 88.0715 132.353 87.499C130.997 87.3081 129.867 86.4292 129.34 85.2188L123.624 72.206C123.328 71.528 123.162 70.7796 123.162 69.9911C123.162 66.9426 125.633 64.4666 128.687 64.4666C138.224 64.4565 146.737 60.1072 152.347 53.2718V64.4666H193.364C196.413 64.4666 198.884 66.9426 198.884 69.9911C198.884 70.7796 198.718 71.528 198.422 72.206L192.712 85.2188C192.194 86.394 191.104 87.2679 189.799 87.4839L184.726 99.4822C183.425 102.551 181.547 105.318 179.227 107.638C178.915 107.95 178.589 108.256 178.257 108.558L178.599 108.397L178.719 108.648C178.995 108.392 179.257 108.146 179.493 107.91C181.883 105.519 183.762 102.732 185.073 99.6329L190.07 87.8204C191.401 87.5341 192.511 86.6301 193.063 85.3745L198.773 72.3617C199.1 71.6134 199.271 70.8198 199.271 69.9911C199.271 66.7367 196.624 64.0899 193.374 64.0899H152.734V52.2222L152.066 53.0358C146.305 60.057 137.787 64.0849 128.697 64.0949C125.443 64.0949 122.796 66.7417 122.796 69.9962C122.796 70.8198 122.962 71.6184 123.293 72.3667L129.003 85.3795C129.561 86.6552 130.736 87.5843 132.097 87.8455C132.318 88.3528 132.539 88.865 132.755 89.3773L137.094 99.6379C138.405 102.737 140.283 105.524 142.674 107.915C142.91 108.151 143.171 108.397 143.448 108.653L143.573 108.402L143.91 108.568L143.904 108.558Z" fill="#004228"/>
<path d="M161.081 115.157C164.622 115.157 167.997 114.439 171.065 113.138C173.602 112.068 175.922 110.597 177.956 108.814L177.911 108.723L178.252 108.563C178.584 108.266 178.905 107.96 179.222 107.643C181.542 105.323 183.425 102.556 184.721 99.4872L189.794 87.4889C191.104 87.273 192.189 86.4041 192.707 85.2238L198.417 72.211C198.713 71.533 198.879 70.7847 198.879 69.9962C198.879 66.9476 196.408 64.4716 193.36 64.4716H152.342V53.2769C146.732 60.1122 138.219 64.4616 128.682 64.4716C125.628 64.4716 123.157 66.9476 123.157 69.9962C123.157 70.7847 123.323 71.533 123.619 72.211L129.335 85.2238C129.862 86.4342 130.992 87.3131 132.348 87.504C132.599 88.0765 132.846 88.6491 133.092 89.2266L137.431 99.4872C138.732 102.556 140.61 105.323 142.93 107.643C143.242 107.955 143.568 108.261 143.9 108.563L144.236 108.728L144.191 108.819C146.23 110.602 148.55 112.073 151.087 113.143C154.155 114.444 157.535 115.162 161.076 115.162L161.081 115.157ZM144.156 108.281C143.829 107.985 143.508 107.684 143.202 107.377C140.881 105.057 139.058 102.35 137.782 99.3416L133.443 89.081C133.197 88.5034 132.951 87.9258 132.7 87.3533L132.614 87.1625L132.404 87.1323C131.208 86.9666 130.169 86.1781 129.681 85.0732L123.966 72.0603C123.68 71.4074 123.534 70.7144 123.534 69.9962C123.534 67.1585 125.844 64.8483 128.682 64.8483C137.652 64.8433 146.079 61.0112 151.965 54.3014V64.8483H193.36C196.197 64.8483 198.502 67.1585 198.502 69.9962C198.502 70.7144 198.357 71.4125 198.07 72.0603L192.36 85.0732C191.883 86.163 190.899 86.9264 189.728 87.1173L189.522 87.1524L184.369 99.3416C183.094 102.355 181.271 105.057 178.95 107.377C178.639 107.689 178.318 107.99 177.996 108.281C175.892 110.18 173.506 111.697 170.915 112.791C167.801 114.107 164.491 114.78 161.076 114.78C157.661 114.78 154.346 114.112 151.232 112.791C148.641 111.697 146.255 110.18 144.151 108.281H144.156Z" fill="#004228"/>
<path d="M161.081 115.534C164.597 115.534 168.007 114.845 171.211 113.489C173.727 112.425 176.052 110.968 178.127 109.17C178.122 109.155 178.112 109.14 178.107 109.13L177.956 108.824C175.917 110.607 173.596 112.078 171.065 113.148C167.997 114.449 164.622 115.167 161.081 115.167C157.54 115.167 154.16 114.449 151.091 113.148C148.555 112.078 146.235 110.607 144.196 108.824L144.045 109.135C144.045 109.135 144.03 109.16 144.025 109.175C146.099 110.978 148.425 112.435 150.946 113.5C154.155 114.856 157.565 115.549 161.081 115.549V115.534Z" fill="#004228"/>
<path d="M93.4051 126.598C94.8114 124.895 96.1322 123.127 97.3727 121.294C98.6132 119.456 99.7634 117.563 100.828 115.609C101.888 113.655 102.857 111.641 103.726 109.577C104.595 107.518 105.373 105.404 106.046 103.239C106.719 101.079 107.282 98.8746 107.744 96.6296C108.201 94.3796 108.552 92.0995 108.788 89.7792C109.025 87.4589 109.145 85.1084 109.145 82.7228V64.1754C109.145 35.4929 132.398 12.2396 161.081 12.2396C189.763 12.2396 213.017 35.4929 213.017 64.1754V82.7228C213.017 85.1034 213.137 87.4589 213.373 89.7792C213.609 92.0995 213.956 94.3796 214.418 96.6296C214.875 98.8746 215.447 101.079 216.115 103.239C216.788 105.399 217.562 107.518 218.431 109.577C219.3 111.641 220.269 113.655 221.334 115.609C222.393 117.563 223.548 119.456 224.784 121.294C226.024 123.127 227.35 124.895 228.757 126.598H219.897C220.249 126.718 220.595 126.844 220.942 126.975H229.555L229.048 126.357C227.647 124.659 226.321 122.886 225.1 121.083C223.855 119.235 222.705 117.332 221.67 115.428C220.615 113.495 219.646 111.476 218.782 109.432C217.918 107.387 217.145 105.268 216.482 103.129C215.814 100.974 215.242 98.7641 214.795 96.5593C214.338 94.3194 213.986 92.0292 213.755 89.744C213.519 87.4237 213.398 85.0632 213.398 82.7278V64.1804C213.398 35.3322 189.929 11.8679 161.086 11.8679C132.243 11.8679 108.773 35.3372 108.773 64.1804V82.7278C108.773 85.0632 108.653 87.4237 108.417 89.744C108.186 92.0292 107.834 94.3194 107.377 96.5593C106.92 98.7892 106.353 100.999 105.69 103.129C105.032 105.243 104.258 107.362 103.384 109.432C102.526 111.466 101.556 113.485 100.502 115.428C99.4419 117.372 98.2869 119.275 97.0664 121.083C95.836 122.906 94.505 124.679 93.1188 126.362L92.6116 126.98H101.215C101.561 126.849 101.908 126.723 102.259 126.603H93.4102L93.4051 126.598Z" fill="#004228"/>
<path d="M103.354 126.221H94.1984C95.4188 124.709 96.5891 123.122 97.684 121.505C98.9195 119.677 100.085 117.753 101.154 115.789C102.219 113.821 103.204 111.782 104.072 109.727C104.956 107.638 105.74 105.494 106.403 103.354C107.071 101.199 107.648 98.9646 108.105 96.7095C108.567 94.4445 108.919 92.1292 109.155 89.8239C109.391 87.4785 109.511 85.0929 109.511 82.7324V64.185C109.511 35.7536 132.639 12.6258 161.071 12.6258C189.502 12.6258 212.63 35.7536 212.63 64.185V82.7324C212.63 85.0929 212.75 87.4785 212.986 89.8239C213.222 92.1342 213.574 94.4495 214.036 96.7146C214.493 98.9445 215.066 101.179 215.744 103.359C216.417 105.519 217.2 107.663 218.069 109.732C218.943 111.797 219.922 113.841 220.987 115.794C222.032 117.718 223.197 119.641 224.457 121.51C225.542 123.117 226.717 124.699 227.948 126.226H218.777C218.777 126.226 218.827 126.241 218.853 126.246C219.199 126.356 219.54 126.482 219.882 126.602H228.741C227.335 124.9 226.009 123.132 224.769 121.299C223.533 119.461 222.378 117.567 221.318 115.614C220.254 113.66 219.284 111.646 218.416 109.582C217.547 107.523 216.773 105.408 216.1 103.244C215.427 101.084 214.86 98.8792 214.403 96.6342C213.946 94.3842 213.594 92.1041 213.358 89.7838C213.122 87.4635 213.001 85.113 213.001 82.7274V64.18C213.001 35.4975 189.748 12.2441 161.066 12.2441C132.383 12.2441 109.13 35.4975 109.13 64.18V82.7274C109.13 85.108 109.009 87.4635 108.773 89.7838C108.537 92.1041 108.191 94.3842 107.729 96.6342C107.272 98.8792 106.704 101.084 106.031 103.244C105.358 105.403 104.585 107.523 103.711 109.582C102.842 111.646 101.873 113.66 100.813 115.614C99.7482 117.567 98.598 119.461 97.3575 121.299C96.117 123.132 94.7961 124.9 93.3899 126.602H102.239C102.586 126.482 102.932 126.356 103.279 126.246C103.299 126.241 103.319 126.236 103.339 126.226L103.354 126.221Z" fill="#004228"/>
<path d="M241.056 142.062L264.214 171.201V170.593L241.353 141.826C235.994 135.086 228.968 129.983 220.937 126.969H219.832C228.094 129.867 235.482 135.045 241.056 142.062Z" fill="#004228"/>
<path d="M218.747 126.603C214.127 125.106 209.245 124.318 204.268 124.318H202.917C200.29 124.318 197.754 123.946 195.353 123.253L195.71 123.373C195.67 123.484 195.629 123.594 195.589 123.705C197.965 124.358 200.431 124.694 202.917 124.694H204.268C209.154 124.694 213.986 125.458 218.632 126.964C227.39 129.802 235.039 135.106 240.765 142.303L263.908 171.427H264.214V171.206L241.056 142.067C235.482 135.05 228.089 129.877 219.832 126.974H218.747V126.603Z" fill="#004228"/>
<path d="M202.922 123.936C200.385 123.936 197.874 123.579 195.464 122.881C188.176 120.777 182.099 115.639 178.79 108.794L178.719 108.643C178.649 108.708 178.584 108.769 178.513 108.834C178.488 108.859 178.458 108.884 178.428 108.904L178.453 108.954C181.718 115.72 187.709 120.908 195.002 123.127V123.117L195.358 123.238C197.759 123.931 200.3 124.308 202.922 124.308H204.273C209.25 124.308 214.127 125.096 218.752 126.593V126.211H218.792C214.096 124.694 209.21 123.926 204.273 123.926H202.922V123.936Z" fill="#004228"/>
<path d="M194.866 123.484C194.906 123.364 194.956 123.248 194.997 123.128C187.704 120.908 181.712 115.72 178.448 108.955L178.423 108.904C178.328 108.99 178.227 109.075 178.127 109.16C181.471 116.056 187.554 121.254 194.861 123.479L194.866 123.484Z" fill="#004228"/>
<path d="M178.423 108.909C178.448 108.884 178.478 108.864 178.508 108.838C178.583 108.773 178.644 108.713 178.714 108.648L178.593 108.396L178.252 108.557L178.423 108.909Z" fill="#004228"/>
<path d="M177.961 108.814C178.061 108.728 178.162 108.643 178.257 108.558L177.916 108.718L177.961 108.809V108.814Z" fill="#004228"/>
<path d="M177.961 108.813L178.112 109.12C178.112 109.12 178.127 109.15 178.132 109.16C178.232 109.075 178.328 108.994 178.428 108.904L178.257 108.552C178.162 108.638 178.061 108.723 177.961 108.808V108.813Z" fill="#004228"/>
<path d="M218.747 126.598C219.109 126.718 219.47 126.849 219.832 126.974H220.937C220.59 126.844 220.244 126.718 219.892 126.598H218.747Z" fill="#004228"/>
<path d="M218.747 126.974H219.832C219.47 126.849 219.114 126.718 218.747 126.603V126.974Z" fill="#004228"/>
<path d="M218.792 126.221H218.752V126.603H219.897C219.556 126.482 219.214 126.362 218.868 126.246C218.843 126.236 218.818 126.231 218.792 126.226V126.221Z" fill="#004228"/>
<path d="M135.191 137.34C138.546 140.7 142.463 143.337 146.833 145.19C151.348 147.099 156.139 148.063 161.081 148.063C166.023 148.063 170.819 147.094 175.334 145.19C179.699 143.342 183.611 140.7 186.971 137.34C190.331 133.985 192.968 130.068 194.816 125.704C195.097 125.046 195.353 124.368 195.589 123.695C195.474 123.665 195.363 123.634 195.248 123.604C195.238 123.604 195.233 123.599 195.223 123.594C194.992 124.252 194.741 124.905 194.464 125.553C192.631 129.882 189.979 133.795 186.7 137.069C183.42 140.349 179.518 143 175.178 144.839C170.844 146.672 166.078 147.681 161.071 147.681C156.064 147.681 151.302 146.667 146.968 144.839C142.634 143 138.727 140.349 135.447 137.069C132.167 133.795 129.516 129.887 127.677 125.553C127.406 124.9 127.155 124.247 126.924 123.594C126.914 123.594 126.909 123.599 126.899 123.604C126.788 123.639 126.673 123.665 126.557 123.695C126.794 124.358 127.05 125.031 127.331 125.704C129.184 130.073 131.821 133.985 135.181 137.34H135.191Z" fill="#004228"/>
<path d="M194.123 125.413C192.315 129.687 189.728 133.524 186.439 136.808C183.149 140.098 179.312 142.689 175.038 144.498C170.618 146.366 165.922 147.31 161.081 147.31C156.239 147.31 151.544 146.361 147.124 144.498C142.845 142.684 139.008 140.098 135.723 136.808C132.434 133.524 129.847 129.692 128.034 125.413C127.763 124.765 127.517 124.122 127.291 123.484C127.17 123.519 127.055 123.564 126.929 123.6C127.16 124.258 127.411 124.91 127.683 125.558C129.521 129.888 132.172 133.8 135.452 137.075C138.727 140.354 142.634 143.006 146.973 144.844C151.308 146.677 156.074 147.687 161.076 147.687C166.078 147.687 170.844 146.672 175.184 144.844C179.518 143.006 183.425 140.354 186.705 137.075C189.984 133.8 192.636 129.893 194.469 125.558C194.746 124.905 194.997 124.253 195.228 123.6C195.107 123.564 194.987 123.524 194.866 123.484C194.635 124.132 194.389 124.78 194.123 125.413Z" fill="#004228"/>
<path d="M195.248 123.609C195.363 123.645 195.474 123.67 195.589 123.7C195.629 123.589 195.67 123.479 195.71 123.368L195.353 123.248C195.313 123.368 195.268 123.484 195.223 123.604C195.233 123.604 195.238 123.609 195.248 123.614V123.609Z" fill="#004228"/>
<path d="M194.997 123.123V123.133C195.112 123.168 195.233 123.213 195.353 123.248L194.997 123.128V123.123Z" fill="#004228"/>
<path d="M194.997 123.132C194.956 123.252 194.911 123.368 194.866 123.488C194.987 123.524 195.102 123.569 195.228 123.604C195.268 123.483 195.318 123.368 195.358 123.247C195.238 123.212 195.122 123.167 195.002 123.132H194.997Z" fill="#004228"/>
<path d="M104.203 207.783C107.292 220.791 109.959 232.021 103.028 246.084C103.023 246.099 103.013 246.109 103.008 246.124L103.384 246.209C110.843 231.032 107.156 218.817 103.917 204.941L103.61 205.277C103.806 206.116 104.002 206.955 104.203 207.783Z" fill="#004228"/>
<path d="M103.816 204.499L104.093 204.755L103.917 204.946C107.156 218.823 110.842 231.037 103.384 246.214L103.761 246.3C110.732 232.046 107.92 220.179 104.936 207.613C104.685 206.558 104.434 205.488 104.183 204.414C101.797 194.098 99.718 182.843 102.747 168.725L102.008 168.569C98.9697 182.752 101.019 194.048 103.404 204.394L103.54 204.248L103.816 204.504V204.499Z" fill="#004228"/>
<path d="M103.61 205.277C103.575 205.127 103.54 204.981 103.505 204.835L75.8569 234.959L76.2939 235.04L103.61 205.277Z" fill="#004228"/>
<path d="M103.505 204.835C103.485 204.75 103.465 204.669 103.445 204.584C103.43 204.519 103.415 204.453 103.399 204.388L75.4202 234.874L75.857 234.954L103.505 204.83V204.835Z" fill="#004228"/>
<path d="M103.917 204.941C103.882 204.795 103.847 204.645 103.811 204.499L103.505 204.836C103.54 204.986 103.575 205.132 103.61 205.277L103.917 204.941Z" fill="#004228"/>
<path d="M104.093 204.75L103.816 204.494C103.852 204.645 103.887 204.79 103.922 204.936L104.098 204.745L104.093 204.75Z" fill="#004228"/>
<path d="M103.505 204.835L103.811 204.499L103.535 204.243L103.399 204.388C103.414 204.454 103.43 204.519 103.445 204.584C103.465 204.67 103.485 204.75 103.505 204.835Z" fill="#004228"/>
<path d="M98.5731 245.115V239.173L76.2991 235.04L75.9977 235.366L98.1964 239.485V245.416L98.2818 245.044L98.5731 245.115Z" fill="#004228"/>
<path d="M98.1109 245.782L98.1963 245.416V239.484L75.9976 235.366L75.837 235.537L75.2845 235.029L75.4251 234.874L45.728 229.364L45.5875 230.103L97.8197 239.796V276.102H98.1963V245.802L98.1109 245.782Z" fill="#004228"/>
<path d="M98.5732 245.888L98.1965 245.802V276.102H98.5732V245.888Z" fill="#004228"/>
<path d="M75.8621 234.954L75.5608 235.281L75.9977 235.366L76.2991 235.039L75.8621 234.954Z" fill="#004228"/>
<path d="M75.8369 235.537L75.9976 235.366L75.5607 235.281L75.8619 234.954L75.4251 234.874L75.2844 235.03L75.8369 235.537Z" fill="#004228"/>
<path d="M103.008 246.124L98.5732 245.109V245.496L103.214 246.556L102.877 246.385C102.922 246.3 102.963 246.209 103.008 246.119V246.124Z" fill="#004228"/>
<path d="M124.734 251.086L103.761 246.3C103.741 246.34 103.726 246.38 103.706 246.42C103.671 246.496 103.631 246.576 103.591 246.651L124.649 251.458C136.216 254.099 144.442 264.335 144.558 276.183H144.934C144.819 264.089 136.547 253.788 124.734 251.091V251.086Z" fill="#004228"/>
<path d="M124.649 251.452L103.591 246.646C103.575 246.671 103.565 246.701 103.55 246.726L103.214 246.556L98.5732 245.496V245.883L124.564 251.814C136.035 254.436 144.065 264.43 144.176 276.172H144.552C144.437 264.33 136.21 254.089 124.644 251.447L124.649 251.452Z" fill="#004228"/>
<path d="M103.369 246.249C103.369 246.249 103.379 246.224 103.389 246.214L103.013 246.129C102.968 246.219 102.927 246.305 102.882 246.395L103.219 246.566C103.269 246.465 103.319 246.36 103.369 246.254V246.249Z" fill="#004228"/>
<path d="M103.369 246.249C103.319 246.355 103.269 246.455 103.219 246.561L103.595 246.646C103.636 246.571 103.671 246.496 103.711 246.415C103.731 246.375 103.746 246.335 103.766 246.295L103.389 246.209C103.389 246.209 103.379 246.234 103.369 246.244V246.249Z" fill="#004228"/>
<path d="M103.214 246.561L103.55 246.732C103.565 246.706 103.575 246.676 103.591 246.651L103.214 246.566V246.561Z" fill="#004228"/>
<path d="M98.2819 245.044L98.1965 245.416L98.5732 245.501V245.114L98.2819 245.044Z" fill="#004228"/>
<path d="M98.1963 245.416L98.1108 245.782L98.1963 245.802V245.416Z" fill="#004228"/>
<path d="M98.1965 245.802L98.5732 245.888V245.501L98.1965 245.416V245.802Z" fill="#004228"/>
<path d="M190.245 265.134H301.761V264.757H190.245V265.134Z" fill="#004228"/>
<path d="M190.245 265.133V265.51H301.761V265.133H190.245Z" fill="#004228"/>
<path d="M159.308 270.844C159.308 267.69 161.864 265.134 165.018 265.134H188.161C187.87 265.028 187.589 264.902 187.323 264.757H165.024C161.669 264.757 158.937 267.489 158.937 270.844C158.937 273.139 160.212 275.138 162.096 276.178H163C160.85 275.359 159.318 273.285 159.318 270.844H159.308Z" fill="#004228"/>
<path d="M159.685 270.843C159.685 267.905 162.075 265.51 165.018 265.51H187.318C187.584 265.364 187.87 265.239 188.156 265.133H165.013C161.864 265.133 159.303 267.689 159.303 270.843C159.303 273.284 160.835 275.359 162.984 276.177H165.008C162.07 276.177 159.675 273.787 159.675 270.843H159.685Z" fill="#004228"/>
<path d="M184.912 270.844C184.912 267.906 187.307 265.51 190.245 265.51H188.216C186.062 266.329 184.53 268.403 184.53 270.844C184.53 273.285 186.062 275.359 188.216 276.178H190.245C187.302 276.178 184.912 273.787 184.912 270.844Z" fill="#004228"/>
<path d="M184.535 270.844C184.535 268.403 186.067 266.329 188.221 265.51H187.317C185.434 266.545 184.158 268.549 184.158 270.844C184.158 273.139 185.439 275.138 187.317 276.178H188.221C186.067 275.359 184.535 273.285 184.535 270.844Z" fill="#004228"/>
<path d="M188.217 265.51H190.246C189.743 265.51 189.256 265.445 188.789 265.329C188.593 265.38 188.403 265.44 188.217 265.51Z" fill="#004228"/>
<path d="M188.156 265.133C187.865 265.239 187.584 265.364 187.317 265.51H188.221C188.407 265.439 188.598 265.379 188.794 265.329C188.578 265.274 188.367 265.208 188.161 265.133H188.156Z" fill="#004228"/>
<path d="M307.472 259.423C307.472 262.005 305.759 264.174 303.414 264.882C303.63 264.928 303.84 264.988 304.051 265.053C306.281 264.144 307.848 261.944 307.848 259.423V196.885H307.472V259.423Z" fill="#004228"/>
<path d="M301.761 171.422H264.968V171.542L264.983 171.562L264.968 171.573V171.799H301.761C304.91 171.799 307.471 174.355 307.471 177.514V196.142H307.848V177.514C307.848 174.154 305.116 171.427 301.761 171.427V171.422Z" fill="#004228"/>
<path d="M307.095 259.423C307.095 262.211 304.92 264.546 302.143 264.742C302.017 264.752 301.892 264.757 301.761 264.757V265.134C301.897 265.134 302.037 265.134 302.173 265.119V264.757C302.6 264.757 303.012 264.802 303.413 264.882C305.759 264.174 307.471 262 307.471 259.423V196.885H307.095V259.423Z" fill="#004228"/>
<path d="M264.209 171.799H190.245C187.091 171.799 184.53 174.355 184.53 177.514V259.428C184.53 261.869 186.062 263.943 188.216 264.762H190.245C187.302 264.762 184.912 262.371 184.912 259.428V177.514C184.912 174.571 187.307 172.18 190.245 172.18H264.214V171.814L264.204 171.804L264.209 171.799Z" fill="#004228"/>
<path d="M301.761 171.799H264.968V172.175H301.761C304.699 172.175 307.095 174.571 307.095 177.509V196.137H307.472V177.509C307.472 174.355 304.915 171.794 301.761 171.794V171.799Z" fill="#004228"/>
<path d="M302.173 265.495V265.118C302.037 265.128 301.897 265.133 301.761 265.133V265.51C301.902 265.51 302.037 265.51 302.173 265.495Z" fill="#004228"/>
<path d="M184.158 177.509V259.423C184.158 261.718 185.439 263.717 187.317 264.757H188.221C186.067 263.938 184.535 261.864 184.535 259.423V177.509C184.535 174.355 187.091 171.794 190.25 171.794H264.214L263.913 171.417H190.25C186.89 171.417 184.163 174.149 184.163 177.504L184.158 177.509Z" fill="#004228"/>
<path d="M264.968 171.542V171.572L264.983 171.562L264.968 171.542Z" fill="#004228"/>
<path d="M264.214 171.809V171.799H264.209L264.214 171.809Z" fill="#004228"/>
<path d="M264.214 171.799V171.422H263.908L264.209 171.799H264.214Z" fill="#004228"/>
<path d="M188.789 264.943C189.256 264.827 189.743 264.762 190.246 264.762H188.217C188.403 264.832 188.593 264.893 188.789 264.943Z" fill="#004228"/>
<path d="M188.217 264.757H187.312C187.579 264.902 187.865 265.028 188.151 265.134C188.357 265.058 188.568 264.993 188.784 264.938C188.588 264.887 188.397 264.827 188.212 264.757H188.217Z" fill="#004228"/>
<path d="M190.245 265.134V264.757C189.743 264.757 189.256 264.822 188.789 264.938C189.256 265.058 189.738 265.134 190.245 265.134Z" fill="#004228"/>
<path d="M190.245 265.51V265.133C189.743 265.133 189.256 265.203 188.789 265.329C189.256 265.444 189.743 265.51 190.245 265.51Z" fill="#004228"/>
<path d="M188.156 265.133H190.245C189.743 265.133 189.256 265.063 188.789 264.938C188.573 264.993 188.362 265.058 188.156 265.133Z" fill="#004228"/>
<path d="M188.156 265.133C188.362 265.208 188.573 265.274 188.789 265.329C189.256 265.208 189.738 265.133 190.245 265.133H188.156Z" fill="#004228"/>
<path d="M161.081 102.395C159.102 102.395 157.194 102.008 155.401 101.25L155.109 101.943C156.998 102.742 159.007 103.148 161.081 103.148C163.155 103.148 165.164 102.742 167.052 101.943L166.761 101.25C164.968 102.008 163.06 102.395 161.086 102.395H161.081Z" fill="#004228"/>
<path d="M156.857 73.9888C159.137 76.515 160.242 79.9001 159.891 83.2851L158.57 96.1875H162.723V95.4341H159.403L160.639 83.3655C161.01 79.7745 159.835 76.1735 157.415 73.4866C154.994 70.8046 151.533 69.2678 147.917 69.2678H137.094V70.0212H147.917C151.317 70.0212 154.577 71.4676 156.852 73.9938L156.857 73.9888Z" fill="#004228"/>
<path d="M182.27 69.2629H166.279V70.0163H182.27V69.2629Z" fill="#004228"/>
<path d="M174.651 72.5222H173.898V80.0858H174.651V72.5222Z" fill="#004228"/>
<path d="M146.993 72.5222H146.24V80.0858H146.993V72.5222Z" fill="#004228"/>
<path d="M264.591 134.076H264.561L264.32 134.367C264.285 134.337 264.25 134.307 264.214 134.277V170.593L264.591 171.065V134.071V134.076Z" fill="#004228"/>
<path d="M264.591 122.259V92.1296H368.975V176.841C369.035 176.871 369.091 176.901 369.151 176.932C369.216 176.967 369.286 177.007 369.352 177.042V91.7529H264.214V118.637C264.305 119.361 264.39 120.084 264.465 120.812C264.516 121.294 264.551 121.776 264.591 122.259Z" fill="#004228"/>
<path d="M264.967 171.422V92.5063H368.598V176.645C368.724 176.711 368.849 176.771 368.975 176.836V92.1296H264.591V122.259C264.817 124.9 264.937 127.562 264.937 130.199H264.591V133.609C264.661 133.669 264.732 133.73 264.797 133.785L264.591 134.036V171.065L264.872 171.417H264.967V171.422Z" fill="#004228"/>
<path d="M264.591 196.137V172.176H264.214V196.514H264.591V196.137Z" fill="#004228"/>
<path d="M264.967 172.176H264.591V196.137H264.967V172.176Z" fill="#004228"/>
<path d="M264.214 133.292C264.34 133.398 264.465 133.508 264.591 133.609V130.198H264.214V133.292Z" fill="#004228"/>
<path d="M264.561 134.076H264.59V134.036L264.561 134.076Z" fill="#004228"/>
<path d="M264.39 171.422H264.591V171.07L264.214 170.593V171.201L264.39 171.422Z" fill="#004228"/>
<path d="M264.591 171.071V171.422H264.872L264.591 171.071Z" fill="#004228"/>
<path d="M264.39 171.422L264.214 171.201V171.422H264.39Z" fill="#004228"/>
<path d="M264.872 171.422L264.967 171.542V171.422H264.872Z" fill="#004228"/>
<path d="M264.968 171.799V171.573L264.691 171.799H264.968Z" fill="#004228"/>
<path d="M264.591 171.879L264.395 172.035L264.3 171.914L264.214 171.809V172.175H264.591V171.879Z" fill="#004228"/>
<path d="M264.691 171.799L264.591 171.879V172.175H264.967V171.799H264.691Z" fill="#004228"/>
<path d="M264.591 171.422H264.39L264.591 171.678V171.422Z" fill="#004228"/>
<path d="M264.691 171.799L264.967 171.573V171.542L264.872 171.422H264.591V171.678L264.691 171.799Z" fill="#004228"/>
<path d="M264.3 171.914L264.395 172.035L264.591 171.879V171.799H264.214V171.809L264.3 171.914Z" fill="#004228"/>
<path d="M264.691 171.799H264.591V171.879L264.691 171.799Z" fill="#004228"/>
<path d="M264.691 171.798L264.591 171.678V171.798H264.691Z" fill="#004228"/>
<path d="M264.214 171.799H264.591V171.678L264.39 171.422H264.214V171.799Z" fill="#004228"/>
<path d="M350.357 196.513H307.848V196.89H350.568C350.533 196.825 350.493 196.76 350.457 196.694C350.422 196.634 350.392 196.574 350.362 196.513H350.357Z" fill="#004228"/>
<path d="M307.848 196.137V196.513H350.357C350.292 196.388 350.227 196.262 350.156 196.137H307.843H307.848Z" fill="#004228"/>
<path d="M264.591 196.513V196.89H307.095V196.513H264.967H264.591Z" fill="#004228"/>
<path d="M307.095 196.137H264.968V196.513H307.095V196.137Z" fill="#004228"/>
<path d="M307.848 196.513H307.471V196.89H307.848V196.513Z" fill="#004228"/>
<path d="M307.848 196.137H307.471V196.513H307.848V196.137Z" fill="#004228"/>
<path d="M307.472 196.513H307.095V196.89H307.472V196.513Z" fill="#004228"/>
<path d="M307.472 196.137H307.095V196.513H307.472V196.137Z" fill="#004228"/>
<path d="M264.967 196.137H264.591V196.513H264.967V196.137Z" fill="#004228"/>
<path d="M0 224.011H0.376674C0.376674 223.88 0.376674 223.76 0.376674 223.634H0C0 223.76 0 223.885 0 224.011Z" fill="#004228"/>
<path d="M0 224.011C0 224.136 0 224.262 0 224.387H0.376674C0.376674 224.262 0.376674 224.141 0.376674 224.016H0V224.011Z" fill="#004228"/>
<path d="M343.401 144.321V143.945C328.932 143.945 317.16 132.172 317.16 117.703H316.783C316.783 132.403 328.701 144.321 343.401 144.321Z" fill="#004228"/>
<path d="M290.165 144.321C304.865 144.321 316.783 132.403 316.783 117.703H316.406C316.406 132.172 304.634 143.945 290.165 143.945V144.698C304.634 144.698 316.406 156.47 316.406 170.939H316.783C316.783 156.239 304.865 144.321 290.165 144.321Z" fill="#004228"/>
<path d="M316.783 170.94H317.16C317.16 156.47 328.932 144.698 343.401 144.698V144.321C328.701 144.321 316.783 156.239 316.783 170.94Z" fill="#004228"/>
<path d="M316.783 117.703C316.783 132.403 304.865 144.321 290.165 144.321C304.865 144.321 316.783 156.239 316.783 170.939C316.783 156.239 328.701 144.321 343.401 144.321C328.701 144.321 316.783 132.403 316.783 117.703ZM316.783 166.429C314.88 155.149 305.955 146.225 294.675 144.321C305.955 142.418 314.88 133.493 316.783 122.213C318.686 133.493 327.611 142.418 338.891 144.321C327.611 146.225 318.686 155.149 316.783 166.429Z" fill="#004228"/>
<path d="M396.783 224.006C382.339 223.905 369.276 218.009 359.799 208.532C356.258 204.991 353.21 200.943 350.784 196.513V196.89H350.563C352.974 201.249 355.987 205.257 359.528 208.798C369.492 218.762 382.706 224.282 396.773 224.382C396.773 224.257 396.778 224.131 396.778 224.006H396.783Z" fill="#004228"/>
<path d="M368.98 177.263C383.976 185.188 394.694 200.125 396.783 217.708V215.086C394.061 198.995 384.057 184.892 369.356 177.042V177.263H368.98Z" fill="#004228"/>
<path d="M396.783 217.707C394.694 200.124 383.976 185.193 368.98 177.263H368.603V177.072C361.331 173.3 353.079 171.171 344.325 171.171C344.325 180.206 346.595 188.704 350.588 196.137H350.789V196.513C353.215 200.943 356.258 204.991 359.804 208.532C369.281 218.009 382.344 223.905 396.788 224.005V217.707H396.783ZM360.065 208.266C356.524 204.725 353.511 200.707 351.115 196.332C346.977 188.779 344.762 180.216 344.702 171.547C353.104 171.608 361.431 173.697 368.804 177.594C385.93 186.649 396.648 204.283 396.783 223.629C382.912 223.533 369.889 218.084 360.065 208.26V208.266Z" fill="#004228"/>
<path d="M344.32 170.794H343.943V171.171C343.943 179.884 346.093 188.498 350.156 196.137H350.583C346.59 188.704 344.32 180.206 344.32 171.171C353.074 171.171 361.331 173.3 368.598 177.072V176.65C361.14 172.823 352.763 170.794 344.32 170.794Z" fill="#004228"/>
<path d="M368.98 176.841V177.263H369.356V177.042C369.291 177.007 369.226 176.967 369.155 176.931C369.095 176.901 369.04 176.871 368.98 176.841Z" fill="#004228"/>
<path d="M368.603 177.263H368.98C368.854 177.198 368.729 177.138 368.603 177.072V177.263Z" fill="#004228"/>
<path d="M368.603 177.072C368.729 177.137 368.854 177.198 368.98 177.263V176.841C368.854 176.776 368.729 176.715 368.603 176.65V177.072Z" fill="#004228"/>
<path d="M350.784 196.513H350.357C350.387 196.574 350.417 196.634 350.453 196.694C350.488 196.76 350.528 196.825 350.563 196.89H350.784V196.513Z" fill="#004228"/>
<path d="M350.784 196.137H350.583C350.648 196.262 350.714 196.388 350.784 196.513V196.137Z" fill="#004228"/>
<path d="M350.583 196.137H350.156C350.222 196.262 350.287 196.388 350.357 196.513H350.784C350.714 196.388 350.653 196.262 350.583 196.137Z" fill="#004228"/>
<path d="M397.16 92.1295C386.844 81.8136 381.686 68.2885 381.686 54.7684C381.686 41.2483 386.844 27.7232 397.165 17.4023C417.802 38.0391 417.802 71.4927 397.165 92.1295H397.542V92.2852C407.526 82.2455 413.021 68.9314 413.021 54.7684C413.021 40.5552 407.486 27.1908 397.436 17.1412L397.17 16.875L396.904 17.1412C386.849 27.1959 381.315 40.5603 381.315 54.7734C381.315 68.9866 386.809 82.2506 396.788 92.2902V92.1345H397.165L397.16 92.1295Z" fill="#004228"/>
<path d="M397.16 17.4023C386.839 27.7232 381.681 41.2433 381.681 54.7684C381.681 68.2935 386.839 81.8136 397.155 92.1295C417.792 71.4927 417.792 38.0391 397.155 17.4023H397.16ZM397.16 91.5921C387.422 81.7132 382.063 68.6501 382.063 54.7634C382.063 40.8767 387.422 27.8136 397.165 17.9347C406.908 27.8136 412.262 40.8767 412.262 54.7634C412.262 68.6501 406.903 81.7132 397.16 91.5921Z" fill="#004228"/>
<path d="M397.16 224.011C397.321 253.06 420.916 276.554 450 276.554V276.178C421.232 276.178 397.698 252.774 397.537 224.011H397.16Z" fill="#004228"/>
<path d="M397.15 224.387C397.025 224.387 396.899 224.387 396.774 224.387C396.412 252.979 372.963 276.182 344.32 276.182V276.936H449.995V276.559H344.32C373.279 276.559 396.789 253.266 397.15 224.392V224.387Z" fill="#004228"/>
<path d="M397.16 224.011V224.387C397.16 224.387 397.16 224.387 397.155 224.387C396.793 253.261 373.284 276.554 344.325 276.554H450C420.916 276.554 397.321 253.06 397.16 224.011ZM397.16 230.058C399.962 253.447 418.053 272.255 441.065 276.178H353.255C376.267 272.255 394.358 253.447 397.16 230.058Z" fill="#004228"/>
<path d="M397.16 224.016H396.783C396.783 224.136 396.778 224.262 396.778 224.388C396.904 224.388 397.03 224.388 397.155 224.388C397.155 224.262 397.16 224.141 397.16 224.016Z" fill="#004228"/>
<path d="M397.16 224.388V224.016C397.16 224.141 397.155 224.267 397.155 224.388C397.155 224.388 397.155 224.388 397.16 224.388Z" fill="#004228"/>
<path d="M397.16 224.005H397.537V223.714H397.16V224.005Z" fill="#004228"/>
<path d="M397.16 224.005V223.714H396.783V224.005C396.849 224.005 396.919 224.005 396.984 224.005H397.16Z" fill="#004228"/>
<path d="M397.16 224.011H397.537V224.006H397.16V224.011Z" fill="#004228"/>
<path d="M397.537 170.975L397.426 171.085L396.894 170.553L397.537 169.91V92.2852C397.502 92.3203 397.461 92.3605 397.426 92.4007L397.16 92.6668L396.894 92.4007C396.859 92.3655 396.819 92.3253 396.783 92.2852V215.086C397.261 217.908 397.522 220.791 397.537 223.714V170.975Z" fill="#004228"/>
<path d="M397.16 223.714H397.537C397.522 220.791 397.261 217.908 396.783 215.081V217.702C397.019 219.676 397.15 221.68 397.16 223.709V223.714Z" fill="#004228"/>
<path d="M397.16 223.714C397.15 221.68 397.019 219.676 396.783 217.707V223.714H397.16Z" fill="#004228"/>
<path d="M397.16 92.6619L397.426 92.3957C397.461 92.3606 397.502 92.3204 397.537 92.2802V92.1245H396.783V92.2802C396.819 92.3154 396.859 92.3555 396.894 92.3957L397.16 92.6619Z" fill="#004228"/>
<path d="M258.072 128.18C256.003 126.11 254.039 123.946 252.181 121.691C250.318 119.436 248.565 117.09 246.917 114.655C245.275 112.224 243.753 109.713 242.342 107.121C240.936 104.53 239.655 101.868 238.495 99.1305C237.34 96.3934 236.315 93.5959 235.426 90.7332C234.537 87.8705 233.784 84.9475 233.176 81.9693C232.569 78.991 232.107 75.9676 231.795 72.8889C231.484 69.8153 231.323 66.6964 231.323 63.5374V59.6551C233.578 61.5184 235.743 63.4821 237.807 65.5513C239.871 67.6205 241.84 69.7851 243.703 72.0401C245.561 74.2952 247.319 76.6406 248.962 79.0714C250.604 81.5022 252.126 84.0134 253.537 86.6049C254.943 89.1964 256.224 91.8632 257.384 94.5954C258.539 97.3275 259.564 100.13 260.453 102.993C261.341 105.855 262.095 108.778 262.703 111.757C263.31 114.73 263.772 117.758 264.089 120.837C264.134 121.309 264.174 121.781 264.214 122.258V118.627C263.918 116.287 263.536 113.961 263.074 111.686C262.472 108.728 261.708 105.765 260.814 102.887C259.94 100.06 258.901 97.2221 257.736 94.4548C256.585 91.7327 255.285 89.0307 253.873 86.4291C252.472 83.8526 250.925 81.3063 249.278 78.8655C247.631 76.4347 245.853 74.0591 243.999 71.8041C242.126 69.534 240.132 67.3443 238.078 65.2901C236.014 63.226 233.819 61.2321 231.564 59.3688L230.946 58.8616V63.5424C230.946 66.7014 231.107 69.8605 231.418 72.9291C231.725 75.9776 232.192 79.0413 232.805 82.0446C233.407 84.9977 234.171 87.9609 235.065 90.8437C235.939 93.6663 236.978 96.5039 238.143 99.2762C239.299 102.003 240.599 104.705 242.006 107.297C243.417 109.893 244.964 112.44 246.601 114.86C248.248 117.301 250.026 119.677 251.884 121.922C253.748 124.182 255.742 126.377 257.801 128.441C259.85 130.49 262.009 132.449 264.209 134.267V133.775C262.08 132.002 260.026 130.128 258.067 128.175L258.072 128.18Z" fill="#004228"/>
<path d="M258.338 127.914C256.294 125.87 254.32 123.695 252.467 121.45C250.624 119.22 248.861 116.865 247.229 114.444C245.607 112.043 244.075 109.517 242.673 106.941C241.277 104.369 239.992 101.692 238.846 98.9853C237.686 96.233 236.657 93.4205 235.793 90.6231C234.904 87.7654 234.151 84.8274 233.548 81.8993C232.94 78.9211 232.478 75.8776 232.172 72.8592C231.86 69.8156 231.705 66.6817 231.705 63.5478V60.4741C233.724 62.1717 235.687 63.9747 237.546 65.8329C239.585 67.872 241.559 70.0467 243.417 72.2967C245.26 74.5316 247.018 76.8871 248.655 79.2978C250.287 81.7185 251.819 84.2448 253.21 86.8011C254.607 89.3826 255.897 92.0595 257.037 94.7615C258.197 97.5087 259.227 100.321 260.091 103.124C260.98 105.976 261.733 108.914 262.336 111.847C262.939 114.806 263.406 117.849 263.717 120.888C264.028 123.971 264.184 127.105 264.184 130.199H264.214V122.269C264.174 121.797 264.134 121.32 264.089 120.847C263.777 117.774 263.31 114.74 262.702 111.767C262.095 108.789 261.341 105.866 260.452 103.003C259.564 100.14 258.539 97.338 257.384 94.6058C256.229 91.8686 254.943 89.2068 253.537 86.6153C252.13 84.0238 250.604 81.5126 248.961 79.0818C247.319 76.651 245.561 74.3056 243.703 72.0506C241.84 69.7955 239.876 67.6309 237.807 65.5617C235.738 63.4925 233.578 61.5288 231.323 59.6655V63.5478C231.323 66.7068 231.479 69.8257 231.795 72.8993C232.106 75.973 232.569 79.0015 233.176 81.9797C233.784 84.9529 234.537 87.8759 235.426 90.7436C236.315 93.6064 237.34 96.4038 238.495 99.141C239.65 101.878 240.936 104.54 242.342 107.131C243.748 109.723 245.275 112.234 246.917 114.665C248.56 117.096 250.317 119.446 252.181 121.701C254.039 123.956 256.008 126.121 258.072 128.19C260.036 130.149 262.085 132.017 264.214 133.79V133.298C262.195 131.605 260.221 129.802 258.338 127.924V127.914Z" fill="#004228"/>
<path d="M264.561 130.199H264.591V122.258C264.551 121.776 264.511 121.294 264.465 120.812C264.39 120.089 264.31 119.36 264.214 118.637V122.268C264.435 124.88 264.561 127.527 264.561 130.199Z" fill="#004228"/>
<path d="M264.561 134.076C264.445 133.981 264.33 133.88 264.214 133.785V134.277C264.25 134.307 264.285 134.337 264.32 134.367L264.561 134.076Z" fill="#004228"/>
<path d="M264.591 122.258V130.198H264.937C264.937 127.562 264.817 124.9 264.591 122.258Z" fill="#004228"/>
<path d="M264.802 133.785C264.732 133.729 264.661 133.664 264.596 133.609V134.036L264.802 133.785Z" fill="#004228"/>
<path d="M264.591 133.609C264.465 133.503 264.34 133.398 264.214 133.292V133.785C264.33 133.88 264.445 133.981 264.561 134.076L264.591 134.036V133.609Z" fill="#004228"/>
<path d="M264.561 130.198C264.561 127.526 264.44 124.88 264.214 122.268V130.198H264.561Z" fill="#004228"/>
<path d="M274.937 36.8839C270.201 41.615 266.469 47.4157 264.144 53.6585L263.953 54.1657H372.134L371.682 53.5631C363.922 43.2171 352.718 36.1256 340.117 33.5792C336.355 23.8359 329.831 15.5089 321.243 9.48214C312.398 3.27958 301.992 0 291.149 0C279.778 0 268.965 3.57087 259.87 10.3359C254.848 8.78906 249.624 8.00056 244.351 8.00056C228.852 8.00056 214.222 14.8058 204.218 26.6685L203.695 27.2863H288.798C283.635 29.6166 278.98 32.8359 274.937 36.8789V36.8839ZM204.504 26.9146C214.061 15.5843 228.37 8.38225 244.351 8.38225C249.785 8.38225 255.018 9.21596 259.945 10.7578C268.644 4.24386 279.447 0.381697 291.154 0.381697C313.388 0.381697 332.362 14.3086 339.845 33.9107C352.677 36.447 363.822 43.7042 371.386 53.7941H264.5C266.851 47.486 270.537 41.8209 275.208 37.1551C279.578 32.7857 284.816 29.2751 290.642 26.9196H204.509L204.504 26.9146Z" fill="#004228"/>
<path d="M275.203 37.1501C270.532 41.8209 266.846 47.4811 264.495 53.7891H371.38C363.817 43.6992 352.672 36.447 339.84 33.9057C332.357 14.3036 313.383 0.376709 291.149 0.376709C279.442 0.376709 268.639 4.23887 259.94 10.7528C255.018 9.21599 249.78 8.37727 244.346 8.37727C228.365 8.37727 214.061 15.5793 204.499 26.9096H290.632C284.811 29.2701 279.572 32.7757 275.198 37.1451L275.203 37.1501ZM205.322 26.538C215.166 15.2277 229.344 8.75896 244.351 8.75896C249.614 8.75896 254.822 9.55249 259.83 11.1144L260.016 11.1697L260.171 11.0542C269.171 4.31421 279.884 0.753383 291.154 0.753383C301.841 0.753383 312.097 3.98273 320.811 10.0999C329.334 16.0765 335.792 24.3533 339.489 34.0413L339.564 34.2372L339.77 34.2774C352.024 36.7032 362.953 43.4833 370.627 53.4124H265.048C267.348 47.466 270.944 41.9414 275.474 37.4163C279.884 33.0067 285.037 29.5916 290.782 27.2612L292.575 26.533H205.327L205.322 26.538Z" fill="#004228"/>
<path d="M422.734 119.069L422.468 118.803L423 118.271L423.266 118.537H448.905L449.171 118.271L449.437 118.537L449.704 118.803L449.437 119.069V144.708L449.704 144.975L449.437 145.241L449.171 145.507L448.905 145.241H423.266L422.889 145.617H449.814V118.16H422.357V145.085L422.734 144.708V119.069Z" fill="#004228"/>
<path d="M448.528 118.914L448.905 118.537H423.266L423.643 118.914H448.528Z" fill="#004228"/>
<path d="M448.528 144.864H423.643L423.266 145.24H448.905L448.528 144.864Z" fill="#004228"/>
<path d="M423.111 119.446L422.734 119.069V144.708L423.111 144.331V119.446Z" fill="#004228"/>
<path d="M422.889 145.617H422.357V145.085L397.537 169.905V170.975L422.889 145.617Z" fill="#004228"/>
<path d="M436.615 131.891L449.061 119.446V118.913L436.349 131.625L436.615 131.891Z" fill="#004228"/>
<path d="M436.349 131.625L449.061 118.913H448.528L436.083 131.359L436.349 131.625Z" fill="#004228"/>
<path d="M435.817 132.157L423.11 144.864H423.643L436.083 132.423L435.817 132.157Z" fill="#004228"/>
<path d="M435.551 131.891L423.11 144.332V144.864L435.817 132.158L435.551 131.891Z" fill="#004228"/>
<path d="M397.426 171.08L397.537 170.975V169.905L396.889 170.548L397.426 171.08Z" fill="#004228"/>
<path d="M422.889 145.617L423.266 145.241H422.734V144.708L422.357 145.085V145.617H422.889Z" fill="#004228"/>
<path d="M423.111 144.864L422.734 145.24H423.266L423.643 144.864H423.111Z" fill="#004228"/>
<path d="M423.111 144.864V144.332L422.734 144.708V145.241L423.111 144.864Z" fill="#004228"/>
<path d="M436.349 132.158L449.061 144.864V144.332L436.615 131.891L436.349 132.158Z" fill="#004228"/>
<path d="M436.083 131.359L423.643 118.913H423.11L435.817 131.625L436.083 131.359Z" fill="#004228"/>
<path d="M449.061 144.864L436.349 132.157L436.083 132.423L448.528 144.864H449.061Z" fill="#004228"/>
<path d="M435.817 131.625L423.11 118.913V119.446L435.551 131.891L435.817 131.625Z" fill="#004228"/>
<path d="M423.266 118.537L423 118.271L422.468 118.803L422.734 119.069V118.537H423.266Z" fill="#004228"/>
<path d="M423.111 118.914H423.643L423.266 118.537H422.734L423.111 118.914Z" fill="#004228"/>
<path d="M423.111 118.914L422.734 118.537V119.069L423.111 119.446V118.914Z" fill="#004228"/>
<path d="M436.301 131.561L436.035 131.827L436.301 132.093L436.567 131.827L436.301 131.561Z" fill="#004228"/>
<path d="M436.035 131.294L435.768 131.56L436.035 131.827L436.301 131.56L436.035 131.294Z" fill="#004228"/>
<path d="M436.135 131.952L435.869 132.218L436.135 132.484L436.401 132.218L436.135 131.952Z" fill="#004228"/>
<path d="M435.869 131.685L435.603 131.952L435.869 132.218L436.136 131.952L435.869 131.685Z" fill="#004228"/>
<path d="M165.018 276.554V276.931H190.245C189.512 276.931 188.809 276.795 188.156 276.554H165.013H165.018Z" fill="#004228"/>
<path d="M144.939 276.554H44.4575C31.4447 276.554 19.5819 269.106 13.9217 257.389C8.26656 245.667 9.8185 231.75 17.9145 221.56L81.0953 142.072C86.6701 135.06 94.0579 129.882 102.31 126.979H101.205C93.179 129.998 86.1527 135.096 80.7989 141.836L17.6182 221.324C9.48202 231.559 7.89997 245.777 13.5802 257.555C19.2655 269.327 31.3844 276.936 44.4525 276.936H165.013C164.28 276.936 163.577 276.8 162.924 276.559H144.934L144.939 276.554Z" fill="#004228"/>
<path d="M307.883 270.844C307.883 273.998 305.327 276.554 302.173 276.554H190.245V276.931H302.173C305.528 276.931 308.26 274.199 308.26 270.844C308.26 268.142 306.492 265.852 304.051 265.058C303.845 265.143 303.639 265.214 303.424 265.279C305.97 265.852 307.878 268.122 307.878 270.844H307.883Z" fill="#004228"/>
<path d="M302.173 265.495V265.51C305.111 265.51 307.507 267.901 307.507 270.844C307.507 273.787 305.116 276.177 302.173 276.177H190.245V276.554H302.173C305.322 276.554 307.883 273.998 307.883 270.844C307.883 268.122 305.975 265.847 303.429 265.279C303.037 265.39 302.625 265.465 302.203 265.495C302.193 265.495 302.183 265.495 302.178 265.495H302.173Z" fill="#004228"/>
<path d="M44.4576 276.178C31.6758 276.178 19.823 268.74 14.2633 257.223C8.70865 245.707 10.2605 231.8 18.2159 221.791L81.3967 142.303C87.1171 135.101 94.7712 129.797 103.525 126.959C108.176 125.458 113.007 124.694 117.884 124.694H119.235C121.726 124.694 124.192 124.358 126.568 123.705C126.527 123.594 126.487 123.484 126.447 123.373L126.804 123.253C124.403 123.946 121.862 124.318 119.235 124.318H117.884C112.912 124.318 108.035 125.106 103.41 126.603V126.979H102.315C94.063 129.882 86.6702 135.055 81.1004 142.072L17.9196 221.56C9.82362 231.75 8.27169 245.672 13.9268 257.389C19.587 269.111 31.4446 276.554 44.4625 276.554H98.2013V276.178H44.4625H44.4576Z" fill="#004228"/>
<path d="M144.934 276.177C144.934 276.263 144.939 276.343 144.939 276.429V276.554H162.929C162.638 276.449 162.356 276.323 162.09 276.177H144.934Z" fill="#004228"/>
<path d="M117.884 124.313H119.235C121.862 124.313 124.403 123.941 126.804 123.248L127.16 123.127C127.16 123.127 127.16 123.132 127.16 123.137C134.453 120.917 140.439 115.729 143.704 108.964L143.729 108.914C143.704 108.889 143.674 108.869 143.649 108.844C143.573 108.779 143.508 108.713 143.438 108.648L143.362 108.799C140.058 115.644 133.981 120.782 126.693 122.886C124.277 123.584 121.766 123.941 119.23 123.941H117.879C112.947 123.941 108.055 124.709 103.349 126.226H103.405V126.603C108.03 125.106 112.907 124.318 117.879 124.318L117.884 124.313Z" fill="#004228"/>
<path d="M144.025 109.166C143.93 109.08 143.829 109 143.734 108.909L143.709 108.96C140.444 115.725 134.458 120.913 127.165 123.133C127.205 123.248 127.251 123.369 127.296 123.489C134.603 121.259 140.685 116.066 144.03 109.166H144.025Z" fill="#004228"/>
<path d="M165.018 276.177V276.554H188.161C187.87 276.449 187.589 276.323 187.323 276.177H165.023H165.018Z" fill="#004228"/>
<path d="M144.181 276.177H98.1965V276.554H144.186V276.429C144.186 276.343 144.186 276.263 144.181 276.177Z" fill="#004228"/>
<path d="M143.563 108.392L143.438 108.643C143.508 108.708 143.573 108.768 143.649 108.839C143.674 108.864 143.704 108.884 143.729 108.909L143.9 108.557L143.563 108.392Z" fill="#004228"/>
<path d="M143.904 108.558C144 108.643 144.1 108.728 144.201 108.814L144.246 108.723L143.909 108.558H143.904Z" fill="#004228"/>
<path d="M144.045 109.125L144.196 108.814C144.1 108.728 144 108.648 143.899 108.558L143.729 108.909C143.824 108.995 143.925 109.08 144.02 109.165C144.025 109.15 144.035 109.14 144.04 109.125H144.045Z" fill="#004228"/>
<path d="M103.41 126.598H102.255C101.903 126.718 101.557 126.844 101.21 126.974H102.315C102.676 126.849 103.043 126.718 103.41 126.598Z" fill="#004228"/>
<path d="M103.41 126.598C103.043 126.718 102.681 126.849 102.315 126.974H103.41V126.598Z" fill="#004228"/>
<path d="M103.354 126.221C103.354 126.221 103.314 126.231 103.294 126.241C102.942 126.357 102.601 126.477 102.254 126.598H103.409V126.221H103.354Z" fill="#004228"/>
<path d="M126.934 123.599C126.894 123.479 126.849 123.363 126.803 123.243L126.447 123.363C126.482 123.474 126.527 123.584 126.567 123.695C126.683 123.665 126.793 123.634 126.909 123.604C126.919 123.604 126.924 123.599 126.934 123.594V123.599Z" fill="#004228"/>
<path d="M127.165 123.133C127.165 123.133 127.165 123.128 127.165 123.123L126.809 123.243C126.929 123.208 127.05 123.168 127.17 123.128L127.165 123.133Z" fill="#004228"/>
<path d="M126.934 123.6C127.055 123.564 127.175 123.524 127.296 123.484C127.255 123.369 127.205 123.248 127.165 123.127C127.045 123.163 126.929 123.208 126.803 123.243C126.844 123.363 126.889 123.479 126.934 123.6Z" fill="#004228"/>
<path d="M144.934 276.177H144.557C144.557 276.263 144.562 276.343 144.562 276.429V276.554H144.939V276.429C144.939 276.343 144.939 276.263 144.934 276.177Z" fill="#004228"/>
<path d="M144.557 276.177H144.181C144.181 276.263 144.186 276.343 144.186 276.429V276.554H144.562V276.429C144.562 276.343 144.562 276.263 144.557 276.177Z" fill="#004228"/>
<path d="M162.929 276.554C163.582 276.795 164.28 276.931 165.018 276.931V276.554H162.929Z" fill="#004228"/>
<path d="M162.989 276.177H162.085C162.352 276.323 162.633 276.449 162.924 276.554H165.013C164.3 276.554 163.617 276.419 162.989 276.177Z" fill="#004228"/>
<path d="M165.018 276.554V276.177H162.994C163.622 276.419 164.305 276.554 165.018 276.554Z" fill="#004228"/>
<path d="M188.156 276.554C188.809 276.795 189.512 276.931 190.245 276.931V276.554H188.156Z" fill="#004228"/>
<path d="M190.246 276.554V276.177H188.217C188.849 276.419 189.527 276.554 190.246 276.554Z" fill="#004228"/>
<path d="M188.217 276.177H187.312C187.579 276.323 187.865 276.449 188.151 276.554H190.24C189.527 276.554 188.844 276.419 188.212 276.177H188.217Z" fill="#004228"/>
<path d="M302.173 265.118V265.133C302.605 265.133 303.022 265.183 303.424 265.274C303.639 265.214 303.845 265.138 304.051 265.053C303.845 264.988 303.629 264.927 303.413 264.882C303.017 265.003 302.6 265.083 302.173 265.113V265.118Z" fill="#004228"/>
<path d="M302.173 265.119C302.6 265.088 303.017 265.008 303.413 264.888C303.012 264.802 302.6 264.762 302.173 264.762V265.124V265.119Z" fill="#004228"/>
<path d="M302.173 265.495C302.173 265.495 302.193 265.495 302.198 265.495C302.62 265.465 303.032 265.39 303.424 265.279C303.022 265.189 302.6 265.139 302.173 265.139V265.124V265.5V265.495Z" fill="#004228"/>
</svg>
